<svg xmlns="http://www.w3.org/2000/svg" width="733px" height="723px">
	<defs>
		<path id="beach" style="fill:#fff894; stroke:#000000" d="M 0.5,22 L 10,0.5 39,0.5 48.5,22 39,43.5 10,43.5 Z" />
		<path id="jungle" style="fill:#264223; stroke:#000000" d="M 0.5,22 L 10,0.5 39,0.5 48.5,22 39,43.5 10,43.5 Z" />
		<path id="lake" style="fill:#3a7ca6; stroke:#ffffff" d="M 0.5,22 L 10,0.5 39,0.5 48.5,22 39,43.5 10,43.5 Z" />
		<path id="mountain" style="fill:#485356; stroke:#000000" d="M 0.5,22 L 10,0.5 39,0.5 48.5,22 39,43.5 10,43.5 Z" />
		<path id="scrub" style="fill:#a89e38; stroke:#000000" d="M 0.5,22 L 10,0.5 39,0.5 48.5,22 39,43.5 10,43.5 Z" />
		<g id="river02">
			<path style="fill:#c99584; stroke:#000000" d="M 0.5,22 L 10,0.5 39,0.5 48.5,22 39,43.5 10,43.5 Z" />
			<path style="fill:none;stroke:#3a7ca6;stroke-width:5px" d="M 24.5,0 C 24.49983,5.1094131 13.290202,15.34805 15.503777,22.736203 17.694812,30.049126 30.124914,26.965701 44.106409,33.212817" />
		</g>
		<g id="river03">
			<path style="fill:#c99584; stroke:#000000" d="M 0.5,22 L 10,0.5 39,0.5 48.5,22 39,43.5 10,43.5 Z" />
			<path style="fill:none;stroke:#3a7ca6;stroke-width:5px" d="M 24.5,0 C 24.5,7.1110206 12.059979,13.776159 24.30225,22.329584 34.329505,29.335422 24.5,38 24.5,44" />
		</g>
		<g id="river04">
			<path style="fill:#c99584; stroke:#000000" d="M 0.5,22 L 10,0.5 39,0.5 48.5,22 39,43.5 10,43.5 Z" />
			<path style="stroke:#3a7ca6; stroke-width: 5px; fill:none" d="M 24.5,0 S 24.5 22 5,33" />
		</g>
		<g id="river12">
			<path style="fill:#c99584; stroke:#000000" d="M 0.5,22 L 10,0.5 39,0.5 48.5,22 39,43.5 10,43.5 Z" />
			<path style="stroke:#3a7ca6; stroke-width: 5px; fill:none" d="M 44,11 S 24.5 22 44,33" />
		</g>
		<g id="river14">
			<path style="fill:#c99584; stroke:#000000" d="M 0.5,22 L 10,0.5 39,0.5 48.5,22 39,43.5 10,43.5 Z" />
			<path style="stroke:#3a7ca6; stroke-width: 5px; fill:none" d="M 5,33 L 44,11 Z" />
		</g>
		<g id="river15">
			<path style="fill:#c99584; stroke:#000000" d="M 0.5,22 L 10,0.5 39,0.5 48.5,22 39,43.5 10,43.5 Z" />
			<path style="stroke:#3a7ca6; stroke-width: 5px; fill:none" d="M 5,11 S 24.5 22 44,11" />
		</g>
		<g id="river24">
			<path style="fill:#c99584; stroke:#000000" d="M 0.5,22 L 10,0.5 39,0.5 48.5,22 39,43.5 10,43.5 Z" />
			<path style="stroke:#3a7ca6; stroke-width: 5px; fill:none" d="M 5,33 S 24.5 22 44,33" />
		</g>
		<g id="river25">
			<path style="fill:#c99584; stroke:#000000" d="M 0.5,22 L 10,0.5 39,0.5 48.5,22 39,43.5 10,43.5 Z" />
			<path style="stroke:#3a7ca6; stroke-width: 5px; fill:none" d="M 5,11 L 44,33 Z" />
		</g>
		<g id="river35">
			<path style="fill:#c99584; stroke:#000000" d="M 0.5,22 L 10,0.5 39,0.5 48.5,22 39,43.5 10,43.5 Z" />
			<path style="stroke:#3a7ca6; stroke-width: 5px; fill:none" d="M 5,11 S 24.5 22 24.5,44" />
		</g>
	</defs>

	<use id="space_77" transform="translate(362, 174)" href="#scrub" />
	<use id="space_78" transform="translate(362, 218)" href="#scrub" />
	<use id="space_79" transform="translate(362, 262)" href="#scrub" />
	<use id="space_80" transform="translate(362, 306)" href="#mountain" />
	<use id="space_90" transform="translate(401, 196)" href="#mountain" />
	<use id="space_91" transform="translate(401, 240)" href="#mountain" />
	<use id="space_92" transform="translate(401, 284)" href="#scrub" />
	<use id="space_93" transform="translate(401, 328)" href="#mountain" />
	<use id="space_103" transform="translate(440, 174)" href="#mountain" />
	<use id="space_104" transform="translate(440, 218)" href="#mountain" />
	<use id="space_105" transform="translate(440, 262)" href="#lake" />
	<use id="space_106" transform="translate(440, 306)" href="#river03" />
	<use id="space_107" transform="translate(440, 350)" href="#river02" />
	<use id="space_115" transform="translate(478, 152)" href="#beach" />
	<use id="space_116" transform="translate(478, 196)" href="#beach" />
	<use id="space_117" transform="translate(478, 240)" href="#lake" />
	<use id="space_118" transform="translate(478, 284)" href="#beach" />
	<use id="space_119" transform="translate(478, 328)" href="#beach" />
	<use id="space_120" transform="translate(478, 372)" href="#river25" />
	<use id="space_127" transform="translate(517, 130)" href="#mountain" />
	<use id="space_129" transform="translate(517, 218)" href="#scrub" />
	<use id="space_130" transform="translate(517, 262)" href="#beach" />
	<use id="space_132" transform="translate(517, 350)" href="#beach" />
	<use id="space_133" transform="translate(517, 394)" href="#river25" />
	<use id="space_140" transform="translate(556, 240)" href="#scrub" />
	<use id="space_141" transform="translate(556, 284)" href="#beach" />
	<use id="space_149" transform="translate(594, 218)" href="#scrub" />

</svg>
