<svg xmlns="http://www.w3.org/2000/svg" width="733px" height="723px">
	<defs>
		<path id="beach" style="fill:#fff894; stroke:#000000" d="M 0.5,22 L 10,0.5 39,0.5 48.5,22 39,43.5 10,43.5 Z" />
		<path id="jungle" style="fill:#264223; stroke:#000000" d="M 0.5,22 L 10,0.5 39,0.5 48.5,22 39,43.5 10,43.5 Z" />
		<path id="lake" style="fill:#3a7ca6; stroke:#ffffff" d="M 0.5,22 L 10,0.5 39,0.5 48.5,22 39,43.5 10,43.5 Z" />
		<path id="mountain" style="fill:#485356; stroke:#000000" d="M 0.5,22 L 10,0.5 39,0.5 48.5,22 39,43.5 10,43.5 Z" />
		<path id="scrub" style="fill:#a89e38; stroke:#000000" d="M 0.5,22 L 10,0.5 39,0.5 48.5,22 39,43.5 10,43.5 Z" />
		<g id="river02">
			<path style="fill:#c99584; stroke:#000000" d="M 0.5,22 L 10,0.5 39,0.5 48.5,22 39,43.5 10,43.5 Z" />
			<path style="fill:none;stroke:#3a7ca6;stroke-width:5px" d="M 24.5,0 C 24.49983,5.1094131 13.290202,15.34805 15.503777,22.736203 17.694812,30.049126 30.124914,26.965701 44.106409,33.212817" />
		</g>
		<g id="river03">
			<path style="fill:#c99584; stroke:#000000" d="M 0.5,22 L 10,0.5 39,0.5 48.5,22 39,43.5 10,43.5 Z" />
			<path style="fill:none;stroke:#3a7ca6;stroke-width:5px" d="M 24.5,0 C 24.5,7.1110206 12.059979,13.776159 24.30225,22.329584 34.329505,29.335422 24.5,38 24.5,44" />
		</g>
		<g id="river04">
			<path style="fill:#c99584; stroke:#000000" d="M 0.5,22 L 10,0.5 39,0.5 48.5,22 39,43.5 10,43.5 Z" />
			<path style="stroke:#3a7ca6; stroke-width: 5px; fill:none" d="M 24.5,0 S 24.5 22 5,33" />
		</g>
		<g id="river12">
			<path style="fill:#c99584; stroke:#000000" d="M 0.5,22 L 10,0.5 39,0.5 48.5,22 39,43.5 10,43.5 Z" />
			<path style="stroke:#3a7ca6; stroke-width: 5px; fill:none" d="M 44,11 S 24.5 22 44,33" />
		</g>
		<g id="river14">
			<path style="fill:#c99584; stroke:#000000" d="M 0.5,22 L 10,0.5 39,0.5 48.5,22 39,43.5 10,43.5 Z" />
			<path style="stroke:#3a7ca6; stroke-width: 5px; fill:none" d="M 5,33 L 44,11 Z" />
		</g>
		<g id="river15">
			<path style="fill:#c99584; stroke:#000000" d="M 0.5,22 L 10,0.5 39,0.5 48.5,22 39,43.5 10,43.5 Z" />
			<path style="stroke:#3a7ca6; stroke-width: 5px; fill:none" d="M 5,11 S 24.5 22 44,11" />
		</g>
		<g id="river24">
			<path style="fill:#c99584; stroke:#000000" d="M 0.5,22 L 10,0.5 39,0.5 48.5,22 39,43.5 10,43.5 Z" />
			<path style="stroke:#3a7ca6; stroke-width: 5px; fill:none" d="M 5,33 S 24.5 22 44,33" />
		</g>
		<g id="river25">
			<path style="fill:#c99584; stroke:#000000" d="M 0.5,22 L 10,0.5 39,0.5 48.5,22 39,43.5 10,43.5 Z" />
			<path style="stroke:#3a7ca6; stroke-width: 5px; fill:none" d="M 5,11 L 44,33 Z" />
		</g>
		<g id="river35">
			<path style="fill:#c99584; stroke:#000000" d="M 0.5,22 L 10,0.5 39,0.5 48.5,22 39,43.5 10,43.5 Z" />
			<path style="stroke:#3a7ca6; stroke-width: 5px; fill:none" d="M 5,11 S 24.5 22 24.5,44" />
		</g>
	</defs>

	<use id="space_12" transform="translate(130, 174)" href="#jungle" />
	<use id="space_13" transform="translate(130, 218)" href="#jungle" />
	<use id="space_14" transform="translate(130, 262)" href="#beach" />
	<use id="space_15" transform="translate(130, 306)" href="#beach" />
	<use id="space_16" transform="translate(130, 350)" href="#beach" />
	<use id="space_21" transform="translate(169, 196)" href="#jungle" />
	<use id="space_22" transform="translate(169, 240)" href="#jungle" />
	<use id="space_23" transform="translate(169, 284)" href="#scrub" />
	<use id="space_24" transform="translate(169, 328)" href="#scrub" />
	<use id="space_25" transform="translate(169, 372)" href="#beach" />
	<use id="space_29" transform="translate(207, 174)" href="#river03" />
	<use id="space_30" transform="translate(207, 218)" href="#river02" />
	<use id="space_31" transform="translate(207, 262)" href="#jungle" />
	<use id="space_32" transform="translate(207, 306)" href="#scrub" />
	<use id="space_33" transform="translate(207, 350)" href="#scrub" />
	<use id="space_34" transform="translate(207, 394)" href="#mountain" />
	<use id="space_39" transform="translate(246, 152)" href="#beach" />
	<use id="space_40" transform="translate(246, 196)" href="#scrub" />
	<use id="space_41" transform="translate(246, 240)" href="#river25" />
	<use id="space_42" transform="translate(246, 284)" href="#lake" />
	<use id="space_43" transform="translate(246, 328)" href="#scrub" />
	<use id="space_44" transform="translate(246, 372)" href="#mountain" />
	<use id="space_50" transform="translate(285, 130)" href="#beach" />
	<use id="space_51" transform="translate(285, 174)" href="#scrub" />
	<use id="space_52" transform="translate(285, 218)" href="#scrub" />
	<use id="space_53" transform="translate(285, 262)" href="#lake" />
	<use id="space_54" transform="translate(285, 306)" href="#lake" />
	<use id="space_55" transform="translate(285, 350)" href="#mountain" />
	<use id="space_63" transform="translate(324, 152)" href="#scrub" />
	<use id="space_64" transform="translate(324, 196)" href="#scrub" />
	<use id="space_65" transform="translate(324, 240)" href="#lake" />
	<use id="space_66" transform="translate(324, 284)" href="#lake" />
	<use id="space_67" transform="translate(324, 328)" href="#lake" />

</svg>
