<svg xmlns="http://www.w3.org/2000/svg" width="733px" height="723px">
	<defs>
		<path id="beach" style="fill:#fff894; stroke:#000000" d="M 0.5,22 L 10,0.5 39,0.5 48.5,22 39,43.5 10,43.5 Z" />
		<path id="jungle" style="fill:#264223; stroke:#000000" d="M 0.5,22 L 10,0.5 39,0.5 48.5,22 39,43.5 10,43.5 Z" />
		<path id="lake" style="fill:#3a7ca6; stroke:#ffffff" d="M 0.5,22 L 10,0.5 39,0.5 48.5,22 39,43.5 10,43.5 Z" />
		<path id="mountain" style="fill:#485356; stroke:#000000" d="M 0.5,22 L 10,0.5 39,0.5 48.5,22 39,43.5 10,43.5 Z" />
		<path id="scrub" style="fill:#a89e38; stroke:#000000" d="M 0.5,22 L 10,0.5 39,0.5 48.5,22 39,43.5 10,43.5 Z" />
		<g id="river02">
			<path style="fill:#c99584; stroke:#000000" d="M 0.5,22 L 10,0.5 39,0.5 48.5,22 39,43.5 10,43.5 Z" />
			<path style="fill:none;stroke:#3a7ca6;stroke-width:5px" d="M 24.5,0 C 24.49983,5.1094131 13.290202,15.34805 15.503777,22.736203 17.694812,30.049126 30.124914,26.965701 44.106409,33.212817" />
		</g>
		<g id="river03">
			<path style="fill:#c99584; stroke:#000000" d="M 0.5,22 L 10,0.5 39,0.5 48.5,22 39,43.5 10,43.5 Z" />
			<path style="fill:none;stroke:#3a7ca6;stroke-width:5px" d="M 24.5,0 C 24.5,7.1110206 12.059979,13.776159 24.30225,22.329584 34.329505,29.335422 24.5,38 24.5,44" />
		</g>
		<g id="river04">
			<path style="fill:#c99584; stroke:#000000" d="M 0.5,22 L 10,0.5 39,0.5 48.5,22 39,43.5 10,43.5 Z" />
			<path style="stroke:#3a7ca6; stroke-width: 5px; fill:none" d="M 24.5,0 S 24.5 22 5,33" />
		</g>
		<g id="river12">
			<path style="fill:#c99584; stroke:#000000" d="M 0.5,22 L 10,0.5 39,0.5 48.5,22 39,43.5 10,43.5 Z" />
			<path style="stroke:#3a7ca6; stroke-width: 5px; fill:none" d="M 44,11 S 24.5 22 44,33" />
		</g>
		<g id="river14">
			<path style="fill:#c99584; stroke:#000000" d="M 0.5,22 L 10,0.5 39,0.5 48.5,22 39,43.5 10,43.5 Z" />
			<path style="stroke:#3a7ca6; stroke-width: 5px; fill:none" d="M 5,33 L 44,11 Z" />
		</g>
		<g id="river15">
			<path style="fill:#c99584; stroke:#000000" d="M 0.5,22 L 10,0.5 39,0.5 48.5,22 39,43.5 10,43.5 Z" />
			<path style="stroke:#3a7ca6; stroke-width: 5px; fill:none" d="M 5,11 S 24.5 22 44,11" />
		</g>
		<g id="river24">
			<path style="fill:#c99584; stroke:#000000" d="M 0.5,22 L 10,0.5 39,0.5 48.5,22 39,43.5 10,43.5 Z" />
			<path style="stroke:#3a7ca6; stroke-width: 5px; fill:none" d="M 5,33 S 24.5 22 44,33" />
		</g>
		<g id="river25">
			<path style="fill:#c99584; stroke:#000000" d="M 0.5,22 L 10,0.5 39,0.5 48.5,22 39,43.5 10,43.5 Z" />
			<path style="stroke:#3a7ca6; stroke-width: 5px; fill:none" d="M 5,11 L 44,33 Z" />
		</g>
		<g id="river35">
			<path style="fill:#c99584; stroke:#000000" d="M 0.5,22 L 10,0.5 39,0.5 48.5,22 39,43.5 10,43.5 Z" />
			<path style="stroke:#3a7ca6; stroke-width: 5px; fill:none" d="M 5,11 S 24.5 22 24.5,44" />
		</g>
	</defs>

	<use id="space_2" transform="translate(53, 195)" href="#jungle" />
	<use id="space_3" transform="translate(53, 239)" href="#jungle" />
	<use id="space_7" transform="translate(91, 217)" href="#jungle" />
	<use id="space_8" transform="translate(91, 261)" href="#jungle" />
	<use id="space_14" transform="translate(130, 239)" href="#jungle" />
	<use id="space_15" transform="translate(130, 283)" href="#mountain" />
	<use id="space_17" transform="translate(130, 371)" href="#scrub" />
	<use id="space_22" transform="translate(169, 173)" href="#beach" />
	<use id="space_24" transform="translate(169, 261)" href="#jungle" />
	<use id="space_25" transform="translate(169, 305)" href="#mountain" />
	<use id="space_26" transform="translate(169, 349)" href="#scrub" />
	<use id="space_27" transform="translate(169, 393)" href="#scrub" />
	<use id="space_32" transform="translate(207, 151)" href="#beach" />
	<use id="space_33" transform="translate(207, 195)" href="#scrub" />
	<use id="space_34" transform="translate(207, 239)" href="#river25" />
	<use id="space_35" transform="translate(207, 283)" href="#jungle" />
	<use id="space_36" transform="translate(207, 327)" href="#mountain" />
	<use id="space_37" transform="translate(207, 371)" href="#scrub" />
	<use id="space_44" transform="translate(246, 129)" href="#beach" />
	<use id="space_45" transform="translate(246, 173)" href="#scrub" />
	<use id="space_46" transform="translate(246, 217)" href="#scrub" />
	<use id="space_47" transform="translate(246, 261)" href="#river25" />
	<use id="space_48" transform="translate(246, 305)" href="#mountain" />
	<use id="space_49" transform="translate(246, 349)" href="#mountain" />
	<use id="space_59" transform="translate(285, 239)" href="#scrub" />
	<use id="space_60" transform="translate(285, 283)" href="#lake" />
	<use id="space_61" transform="translate(285, 327)" href="#lake" />
	<use id="space_71" transform="translate(324, 173)" href="#scrub" />
	<use id="space_72" transform="translate(324, 217)" href="#scrub" />
	<use id="space_73" transform="translate(324, 261)" href="#lake" />
	<use id="space_74" transform="translate(324, 305)" href="#lake" />

</svg>
