<svg xmlns="http://www.w3.org/2000/svg" width="733px" height="723px">
	<defs>
		<path id="beach" style="fill:#fff894; stroke:#000000" d="M 0.5,22 L 10,0.5 39,0.5 48.5,22 39,43.5 10,43.5 Z" />
		<path id="jungle" style="fill:#264223; stroke:#000000" d="M 0.5,22 L 10,0.5 39,0.5 48.5,22 39,43.5 10,43.5 Z" />
		<path id="lake" style="fill:#3a7ca6; stroke:#ffffff" d="M 0.5,22 L 10,0.5 39,0.5 48.5,22 39,43.5 10,43.5 Z" />
		<path id="mountain" style="fill:#485356; stroke:#000000" d="M 0.5,22 L 10,0.5 39,0.5 48.5,22 39,43.5 10,43.5 Z" />
		<path id="scrub" style="fill:#a89e38; stroke:#000000" d="M 0.5,22 L 10,0.5 39,0.5 48.5,22 39,43.5 10,43.5 Z" />
		<g id="river02">
			<path style="fill:#c99584; stroke:#000000" d="M 0.5,22 L 10,0.5 39,0.5 48.5,22 39,43.5 10,43.5 Z" />
			<path style="fill:none;stroke:#3a7ca6;stroke-width:5px" d="M 24.5,0 C 24.49983,5.1094131 13.290202,15.34805 15.503777,22.736203 17.694812,30.049126 30.124914,26.965701 44.106409,33.212817" />
		</g>
		<g id="river03">
			<path style="fill:#c99584; stroke:#000000" d="M 0.5,22 L 10,0.5 39,0.5 48.5,22 39,43.5 10,43.5 Z" />
			<path style="fill:none;stroke:#3a7ca6;stroke-width:5px" d="M 24.5,0 C 24.5,7.1110206 12.059979,13.776159 24.30225,22.329584 34.329505,29.335422 24.5,38 24.5,44" />
		</g>
		<g id="river04">
			<path style="fill:#c99584; stroke:#000000" d="M 0.5,22 L 10,0.5 39,0.5 48.5,22 39,43.5 10,43.5 Z" />
			<path style="stroke:#3a7ca6; stroke-width: 5px; fill:none" d="M 24.5,0 S 24.5 22 5,33" />
		</g>
		<g id="river12">
			<path style="fill:#c99584; stroke:#000000" d="M 0.5,22 L 10,0.5 39,0.5 48.5,22 39,43.5 10,43.5 Z" />
			<path style="stroke:#3a7ca6; stroke-width: 5px; fill:none" d="M 44,11 S 24.5 22 44,33" />
		</g>
		<g id="river14">
			<path style="fill:#c99584; stroke:#000000" d="M 0.5,22 L 10,0.5 39,0.5 48.5,22 39,43.5 10,43.5 Z" />
			<path style="stroke:#3a7ca6; stroke-width: 5px; fill:none" d="M 5,33 L 44,11 Z" />
		</g>
		<g id="river15">
			<path style="fill:#c99584; stroke:#000000" d="M 0.5,22 L 10,0.5 39,0.5 48.5,22 39,43.5 10,43.5 Z" />
			<path style="stroke:#3a7ca6; stroke-width: 5px; fill:none" d="M 5,11 S 24.5 22 44,11" />
		</g>
		<g id="river24">
			<path style="fill:#c99584; stroke:#000000" d="M 0.5,22 L 10,0.5 39,0.5 48.5,22 39,43.5 10,43.5 Z" />
			<path style="stroke:#3a7ca6; stroke-width: 5px; fill:none" d="M 5,33 S 24.5 22 44,33" />
		</g>
		<g id="river25">
			<path style="fill:#c99584; stroke:#000000" d="M 0.5,22 L 10,0.5 39,0.5 48.5,22 39,43.5 10,43.5 Z" />
			<path style="stroke:#3a7ca6; stroke-width: 5px; fill:none" d="M 5,11 L 44,33 Z" />
		</g>
		<g id="river35">
			<path style="fill:#c99584; stroke:#000000" d="M 0.5,22 L 10,0.5 39,0.5 48.5,22 39,43.5 10,43.5 Z" />
			<path style="stroke:#3a7ca6; stroke-width: 5px; fill:none" d="M 5,11 S 24.5 22 24.5,44" />
		</g>
	</defs>

	<use id="space_84" transform="translate(362, 195)" href="#mountain" />
	<use id="space_85" transform="translate(362, 239)" href="#mountain" />
	<use id="space_86" transform="translate(362, 283)" href="#mountain" />
	<use id="space_87" transform="translate(362, 327)" href="#lake" />
	<use id="space_96" transform="translate(401, 173)" href="#beach" />
	<use id="space_97" transform="translate(401, 217)" href="#scrub" />
	<use id="space_98" transform="translate(401, 261)" href="#scrub" />
	<use id="space_99" transform="translate(401, 305)" href="#lake" />
	<use id="space_100" transform="translate(401, 349)" href="#lake" />
	<use id="space_108" transform="translate(440, 151)" href="#beach" />
	<use id="space_109" transform="translate(440, 195)" href="#scrub" />
	<use id="space_110" transform="translate(440, 239)" href="#scrub" />
	<use id="space_111" transform="translate(440, 283)" href="#lake" />
	<use id="space_112" transform="translate(440, 327)" href="#lake" />
	<use id="space_113" transform="translate(440, 371)" href="#lake" />
	<use id="space_120" transform="translate(478, 173)" href="#beach" />
	<use id="space_121" transform="translate(478, 217)" href="#scrub" />
	<use id="space_122" transform="translate(478, 261)" href="#jungle" />
	<use id="space_123" transform="translate(478, 305)" href="#river14" />
	<use id="space_124" transform="translate(478, 349)" href="#scrub" />
	<use id="space_125" transform="translate(478, 393)" href="#scrub" />
	<use id="space_131" transform="translate(517, 195)" href="#beach" />
	<use id="space_132" transform="translate(517, 239)" href="#jungle" />
	<use id="space_133" transform="translate(517, 283)" href="#river24" />
	<use id="space_134" transform="translate(517, 327)" href="#scrub" />
	<use id="space_135" transform="translate(517, 371)" href="#scrub" />
	<use id="space_136" transform="translate(517, 415)" href="#scrub" />
	<use id="space_140" transform="translate(556, 217)" href="#jungle" />
	<use id="space_141" transform="translate(556, 261)" href="#jungle" />
	<use id="space_142" transform="translate(556, 305)" href="#river25" />
	<use id="space_143" transform="translate(556, 349)" href="#beach" />
	<use id="space_144" transform="translate(556, 393)" href="#beach" />
	<use id="space_149" transform="translate(594, 239)" href="#jungle" />

</svg>
