<svg xmlns="http://www.w3.org/2000/svg" width="733px" height="723px">
	<defs>
		<path id="beach" style="fill:#fff894; stroke:#000000" d="M 0.5,22 L 10,0.5 39,0.5 48.5,22 39,43.5 10,43.5 Z" />
		<path id="jungle" style="fill:#264223; stroke:#000000" d="M 0.5,22 L 10,0.5 39,0.5 48.5,22 39,43.5 10,43.5 Z" />
		<path id="lake" style="fill:#3a7ca6; stroke:#ffffff" d="M 0.5,22 L 10,0.5 39,0.5 48.5,22 39,43.5 10,43.5 Z" />
		<path id="mountain" style="fill:#485356; stroke:#000000" d="M 0.5,22 L 10,0.5 39,0.5 48.5,22 39,43.5 10,43.5 Z" />
		<path id="scrub" style="fill:#a89e38; stroke:#000000" d="M 0.5,22 L 10,0.5 39,0.5 48.5,22 39,43.5 10,43.5 Z" />
		<g id="river02">
			<path style="fill:#c99584; stroke:#000000" d="M 0.5,22 L 10,0.5 39,0.5 48.5,22 39,43.5 10,43.5 Z" />
			<path style="fill:none;stroke:#3a7ca6;stroke-width:5px" d="M 24.5,0 C 24.49983,5.1094131 13.290202,15.34805 15.503777,22.736203 17.694812,30.049126 30.124914,26.965701 44.106409,33.212817" />
		</g>
		<g id="river03">
			<path style="fill:#c99584; stroke:#000000" d="M 0.5,22 L 10,0.5 39,0.5 48.5,22 39,43.5 10,43.5 Z" />
			<path style="fill:none;stroke:#3a7ca6;stroke-width:5px" d="M 24.5,0 C 24.5,7.1110206 12.059979,13.776159 24.30225,22.329584 34.329505,29.335422 24.5,38 24.5,44" />
		</g>
		<g id="river04">
			<path style="fill:#c99584; stroke:#000000" d="M 0.5,22 L 10,0.5 39,0.5 48.5,22 39,43.5 10,43.5 Z" />
			<path style="stroke:#3a7ca6; stroke-width: 5px; fill:none" d="M 24.5,0 S 24.5 22 5,33" />
		</g>
		<g id="river12">
			<path style="fill:#c99584; stroke:#000000" d="M 0.5,22 L 10,0.5 39,0.5 48.5,22 39,43.5 10,43.5 Z" />
			<path style="stroke:#3a7ca6; stroke-width: 5px; fill:none" d="M 44,11 S 24.5 22 44,33" />
		</g>
		<g id="river14">
			<path style="fill:#c99584; stroke:#000000" d="M 0.5,22 L 10,0.5 39,0.5 48.5,22 39,43.5 10,43.5 Z" />
			<path style="stroke:#3a7ca6; stroke-width: 5px; fill:none" d="M 5,33 L 44,11 Z" />
		</g>
		<g id="river15">
			<path style="fill:#c99584; stroke:#000000" d="M 0.5,22 L 10,0.5 39,0.5 48.5,22 39,43.5 10,43.5 Z" />
			<path style="stroke:#3a7ca6; stroke-width: 5px; fill:none" d="M 5,11 S 24.5 22 44,11" />
		</g>
		<g id="river24">
			<path style="fill:#c99584; stroke:#000000" d="M 0.5,22 L 10,0.5 39,0.5 48.5,22 39,43.5 10,43.5 Z" />
			<path style="stroke:#3a7ca6; stroke-width: 5px; fill:none" d="M 5,33 S 24.5 22 44,33" />
		</g>
		<g id="river25">
			<path style="fill:#c99584; stroke:#000000" d="M 0.5,22 L 10,0.5 39,0.5 48.5,22 39,43.5 10,43.5 Z" />
			<path style="stroke:#3a7ca6; stroke-width: 5px; fill:none" d="M 5,11 L 44,33 Z" />
		</g>
		<g id="river35">
			<path style="fill:#c99584; stroke:#000000" d="M 0.5,22 L 10,0.5 39,0.5 48.5,22 39,43.5 10,43.5 Z" />
			<path style="stroke:#3a7ca6; stroke-width: 5px; fill:none" d="M 5,11 S 24.5 22 24.5,44" />
		</g>
	</defs>

	<use id="space_45" transform="translate(246, 416)" href="#river12" />
	<use id="space_56" transform="translate(285, 394)" href="#river24" />
	<use id="space_57" transform="translate(285, 438)" href="#river35" />
	<use id="space_58" transform="translate(285, 482)" href="#river03" />
	<use id="space_60" transform="translate(285, 570)" href="#beach" />
	<use id="space_68" transform="translate(324, 372)" href="#lake" />
	<use id="space_69" transform="translate(324, 416)" href="#river15" />
	<use id="space_70" transform="translate(324, 460)" href="#mountain" />
	<use id="space_72" transform="translate(324, 548)" href="#jungle" />
	<use id="space_73" transform="translate(324, 592)" href="#beach" />
	<use id="space_81" transform="translate(362, 350)" href="#lake" />
	<use id="space_82" transform="translate(362, 394)" href="#lake" />
	<use id="space_83" transform="translate(362, 438)" href="#mountain" />
	<use id="space_84" transform="translate(362, 482)" href="#jungle" />
	<use id="space_85" transform="translate(362, 526)" href="#jungle" />
	<use id="space_86" transform="translate(362, 570)" href="#jungle" />
	<use id="space_87" transform="translate(362, 614)" href="#mountain" />
	<use id="space_94" transform="translate(401, 372)" href="#scrub" />
	<use id="space_95" transform="translate(401, 416)" href="#mountain" />
	<use id="space_96" transform="translate(401, 460)" href="#beach" />
	<use id="space_97" transform="translate(401, 504)" href="#beach" />
	<use id="space_98" transform="translate(401, 548)" href="#jungle" />
	<use id="space_99" transform="translate(401, 592)" href="#beach" />
	<use id="space_108" transform="translate(440, 394)" href="#scrub" />
	<use id="space_109" transform="translate(440, 438)" href="#beach" />
	<use id="space_111" transform="translate(440, 526)" href="#jungle" />
	<use id="space_112" transform="translate(440, 570)" href="#beach" />
	<use id="space_121" transform="translate(478, 416)" href="#scrub" />
	<use id="space_123" transform="translate(478, 504)" href="#beach" />

</svg>
