<?xml version="1.0" encoding="utf-8" standalone="yes"?>
<svg xmlns="http://www.w3.org/2000/svg" width="480px" height="640px" version="1.1">
  <rect width="71" height="95" rx="5" ry="5" x="0.5" y="0.5" style="fill:#ffffff;stroke:#000000;stroke-width:1" transform="matrix(6.66666666667,0,0,6.66666666667,0,0)" />
  <g style="fill:#c8102e">
    <path d="m 45.662453,110.91134 l 0.302547,-3.8286 c 0.95542,-11.8314 3.497687,-15.822733 17.917407,-28.174 c 7.000633,-5.987067 9.29624,-8.9412 9.617973,-12.368333 c 0.916847,-8.0838 -6.236193,-10.606867 -10.895133,-10.643733 c -6.03788,-0.054533 -12.86918,3.6194 -9.608373,12.158933 l -6.775613,2.027667 c -1.36182,-7.965467 0.039507,-15.438133 6.378993,-18.754467 c 8.466507,-4.324067 19.322873,-2.629 24.8044,4.183467 c 3.68414,4.570333 4.52592,10.895133 2.549607,15.844933 c -5.7741,12.6444 -25.36076,18.207533 -26.976767,32.8378 l 21.64764,0 l 0,-8.145333 l 6.378993,0 l 0,14.994867 l -35.341673,-0.133533 z" />
    <path d="m 434.337547,529.08866 l -0.302547,3.8286 c -0.95542,11.8314 -3.497687,15.822733 -17.917407,28.174 c -7.000633,5.987067 -9.29624,8.9412 -9.617973,12.368333 c -0.916847,8.0838 6.236193,10.606867 10.895133,10.643733 c 6.03788,0.054533 12.86918,-3.6194 9.608373,-12.158933 l 6.775613,-2.027667 c 1.36182,7.965467 -0.039507,15.438133 -6.378993,18.754467 c -8.466507,4.324067 -19.322873,2.629 -24.8044,-4.183467 c -3.68414,-4.570333 -4.52592,-10.895133 -2.549607,-15.844933 c 5.7741,-12.6444 25.36076,-18.207533 26.976767,-32.8378 l -21.64764,0 l 0,8.145333 l -6.378993,0 l 0,-14.994867 l 35.341673,0.133533 z" />
    <path d="m 63.333333,159.395559 c -4.247093,-6.445835 -8.71532,-12.710661 -14.299139,-18.062221 c 5.583819,-5.35156 10.052045,-11.616389 14.299139,-18.062224 c 4.247101,6.445835 8.715328,12.710664 14.299147,18.062224 c -5.583819,5.35156 -10.052045,11.616387 -14.299147,18.062221 z" />
    <path d="m 416.666667,480.604441 c 4.247093,6.445835 8.71532,12.710661 14.299139,18.062221 c -5.583819,5.35156 -10.052045,11.616389 -14.299139,18.062224 c -4.247101,-6.445835 -8.715328,-12.710664 -14.299147,-18.062224 c 5.583819,-5.35156 10.052045,-11.616387 14.299147,-18.062221 z" />
    <path d="m 240,178.488897 c -10.617733,-16.114587 -21.7883,-31.776653 -35.747847,-45.155553 c 13.959547,-13.3789 25.130113,-29.040973 35.747847,-45.15556 c 10.617753,16.114587 21.78832,31.77666 35.747867,45.15556 c -13.959547,13.3789 -25.130113,29.040967 -35.747867,45.155553 z" />
    <path d="m 240,461.511103 c -10.617733,16.114587 -21.7883,31.776653 -35.747847,45.155553 c 13.959547,13.3789 25.130113,29.040973 35.747847,45.15556 c 10.617753,-16.114587 21.78832,-31.77666 35.747867,-45.15556 c -13.959547,-13.3789 -25.130113,-29.040967 -35.747867,-45.155553 z" />
  </g>
</svg>