<?xml version="1.0" encoding="utf-8" standalone="yes"?>
<svg xmlns="http://www.w3.org/2000/svg" width="480px" height="640px" version="1.1">
  <rect width="71" height="95" rx="5" ry="5" x="0.5" y="0.5" style="fill:#ffffff;stroke:#000000;stroke-width:1" transform="matrix(6.66666666667,0,0,6.66666666667,0,0)" />
  <g style="fill:#c8102e">
    <path d="m 45.662453,110.91134 l 0.302547,-3.8286 c 0.95542,-11.8314 3.497687,-15.822733 17.917407,-28.174 c 7.000633,-5.987067 9.29624,-8.9412 9.617973,-12.368333 c 0.916847,-8.0838 -6.236193,-10.606867 -10.895133,-10.643733 c -6.03788,-0.054533 -12.86918,3.6194 -9.608373,12.158933 l -6.775613,2.027667 c -1.36182,-7.965467 0.039507,-15.438133 6.378993,-18.754467 c 8.466507,-4.324067 19.322873,-2.629 24.8044,4.183467 c 3.68414,4.570333 4.52592,10.895133 2.549607,15.844933 c -5.7741,12.6444 -25.36076,18.207533 -26.976767,32.8378 l 21.64764,0 l 0,-8.145333 l 6.378993,0 l 0,14.994867 l -35.341673,-0.133533 z" />
    <path d="m 434.337547,529.08866 l -0.302547,3.8286 c -0.95542,11.8314 -3.497687,15.822733 -17.917407,28.174 c -7.000633,5.987067 -9.29624,8.9412 -9.617973,12.368333 c -0.916847,8.0838 6.236193,10.606867 10.895133,10.643733 c 6.03788,0.054533 12.86918,-3.6194 9.608373,-12.158933 l 6.775613,-2.027667 c 1.36182,7.965467 -0.039507,15.438133 -6.378993,18.754467 c -8.466507,4.324067 -19.322873,2.629 -24.8044,-4.183467 c -3.68414,-4.570333 -4.52592,-10.895133 -2.549607,-15.844933 c 5.7741,-12.6444 25.36076,-18.207533 26.976767,-32.8378 l -21.64764,0 l 0,8.145333 l -6.378993,0 l 0,-14.994867 l 35.341673,0.133533 z" />
    <path d="m 63.333333,159.395559 l -9.785363,-12.535379 c -3.759373,-4.533061 -6.764909,-9.441517 -7.044344,-13.669405 c -0.320496,-4.829621 2.713248,-9.674869 8.205635,-9.909699 c 5.489083,-0.234696 7.717123,3.723851 8.624072,6.987528 c 0.907032,-3.263685 3.135072,-7.222224 8.624155,-6.987528 c 5.492389,0.234829 8.526139,5.080077 8.205635,9.909699 c -0.279427,4.227885 -3.284963,9.136344 -7.044344,13.669405 z" />
    <path d="m 416.666667,480.604441 l 9.785363,12.535379 c 3.759373,4.533061 6.764909,9.441517 7.044344,13.669405 c 0.320496,4.829621 -2.713248,9.674869 -8.205635,9.909699 c -5.489083,0.234696 -7.717123,-3.723851 -8.624072,-6.987528 c -0.907032,3.263685 -3.135072,7.222224 -8.624155,6.987528 c -5.492389,-0.234829 -8.526139,-5.080077 -8.205635,-9.909699 c 0.279427,-4.227885 3.284963,-9.136344 7.044344,-13.669405 z" />
    <path d="m 240,178.488897 l -24.463407,-31.338447 c -9.398433,-11.332653 -16.912273,-23.603793 -17.61086,-34.173513 c -0.80124,-12.074053 6.78312,-24.187173 20.514087,-24.774247 c 13.722707,-0.58674 19.292807,9.309627 21.56018,17.46882 c 2.26758,-8.159213 7.83768,-18.05556 21.560387,-17.46882 c 13.730973,0.587073 21.315347,12.700193 20.514087,24.774247 c -0.698567,10.569713 -8.212407,22.84086 -17.61086,34.173513 z" />
    <path d="m 240,461.511103 l -24.463407,31.338447 c -9.398433,11.332653 -16.912273,23.603793 -17.61086,34.173513 c -0.80124,12.074053 6.78312,24.187173 20.514087,24.774247 c 13.722707,0.58674 19.292807,-9.309627 21.56018,-17.46882 c 2.26758,8.159213 7.83768,18.05556 21.560387,17.46882 c 13.730973,-0.587073 21.315347,-12.700193 20.514087,-24.774247 c -0.698567,-10.569713 -8.212407,-22.84086 -17.61086,-34.173513 z" />
  </g>
</svg>