<?xml version="1.0" encoding="utf-8" standalone="yes"?>
<svg xmlns="http://www.w3.org/2000/svg" width="480px" height="640px" version="1.1">
  <rect width="71" height="95" rx="5" ry="5" x="0.5" y="0.5" style="fill:#ffffff;stroke:#000000;stroke-width:1" transform="matrix(6.66666666667,0,0,6.66666666667,0,0)" />
  <g style="fill:#000000">
    <path d="m 45.662453,110.91134 l 0.302547,-3.8286 c 0.95542,-11.8314 3.497687,-15.822733 17.917407,-28.174 c 7.000633,-5.987067 9.29624,-8.9412 9.617973,-12.368333 c 0.916847,-8.0838 -6.236193,-10.606867 -10.895133,-10.643733 c -6.03788,-0.054533 -12.86918,3.6194 -9.608373,12.158933 l -6.775613,2.027667 c -1.36182,-7.965467 0.039507,-15.438133 6.378993,-18.754467 c 8.466507,-4.324067 19.322873,-2.629 24.8044,4.183467 c 3.68414,4.570333 4.52592,10.895133 2.549607,15.844933 c -5.7741,12.6444 -25.36076,18.207533 -26.976767,32.8378 l 21.64764,0 l 0,-8.145333 l 6.378993,0 l 0,14.994867 l -35.341673,-0.133533 z" />
    <path d="m 434.337547,529.08866 l -0.302547,3.8286 c -0.95542,11.8314 -3.497687,15.822733 -17.917407,28.174 c -7.000633,5.987067 -9.29624,8.9412 -9.617973,12.368333 c -0.916847,8.0838 6.236193,10.606867 10.895133,10.643733 c 6.03788,0.054533 12.86918,-3.6194 9.608373,-12.158933 l 6.775613,-2.027667 c 1.36182,7.965467 -0.039507,15.438133 -6.378993,18.754467 c -8.466507,4.324067 -19.322873,2.629 -24.8044,-4.183467 c -3.68414,-4.570333 -4.52592,-10.895133 -2.549607,-15.844933 c 5.7741,-12.6444 25.36076,-18.207533 26.976767,-32.8378 l -21.64764,0 l 0,8.145333 l -6.378993,0 l 0,-14.994867 l 35.341673,0.133533 z" />
    <path d="m 63.333333,123.219197 l -9.785363,10.905779 c -3.759373,3.943765 -6.764909,8.21412 -7.136688,11.324555 c -0.446885,9.269187 12.520965,11.939891 14.955824,2.083568 c 0.128544,-1.039917 0.97476,-1.016184 0.770736,0.459923 c -0.222016,4.006384 -1.474781,7.750952 -3.196717,11.402525 c 2.902224,0 6.145672,0 8.784491,0 c -1.721859,-3.651573 -2.974699,-7.396141 -3.196717,-11.402525 c -0.204027,-1.476107 0.642189,-1.499843 0.770736,-0.459923 c 2.434859,9.856323 15.402707,7.185619 14.955816,-2.083568 c -0.371755,-3.110432 -3.377291,-7.380789 -7.136672,-11.324555 z" />
    <path d="m 416.666667,516.780803 l 9.785363,-10.905779 c 3.759373,-3.943765 6.764909,-8.21412 7.136688,-11.324555 c 0.446885,-9.269187 -12.520965,-11.939891 -14.955824,-2.083568 c -0.128544,1.039917 -0.97476,1.016184 -0.770736,-0.459923 c 0.222016,-4.006384 1.474781,-7.750952 3.196717,-11.402525 c -2.902224,0 -6.145672,0 -8.784491,0 c 1.721859,3.651573 2.974699,7.396141 3.196717,11.402525 c 0.204027,1.476107 -0.642189,1.499843 -0.770736,0.459923 c -2.434859,-9.856323 -15.402707,-7.185619 -14.955816,2.083568 c 0.371755,3.110432 3.377291,7.380789 7.136672,11.324555 z" />
    <path d="m 240,88.047993 l -24.463407,27.264447 c -9.398433,9.859413 -16.912273,20.5353 -17.84172,28.311387 c -1.117213,23.172967 31.302413,29.849727 37.38956,5.20892 c 0.32136,-2.599793 2.4369,-2.54046 1.92684,1.149807 c -0.55504,10.01596 -3.686953,19.37738 -7.991793,28.506313 c 7.25556,0 15.36418,0 21.961227,0 c -4.304647,-9.128933 -7.436747,-18.490353 -7.991793,-28.506313 c -0.510067,-3.690267 1.605473,-3.749607 1.92684,-1.149807 c 6.087147,24.640807 38.506767,17.964047 37.38954,-5.20892 c -0.929387,-7.77608 -8.443227,-18.451973 -17.84168,-28.311387 z" />
    <path d="m 240,551.952007 l -24.463407,-27.264447 c -9.398433,-9.859413 -16.912273,-20.5353 -17.84172,-28.311387 c -1.117213,-23.172967 31.302413,-29.849727 37.38956,-5.20892 c 0.32136,2.599793 2.4369,2.54046 1.92684,-1.149807 c -0.55504,-10.01596 -3.686953,-19.37738 -7.991793,-28.506313 c 7.25556,0 15.36418,0 21.961227,0 c -4.304647,9.128933 -7.436747,18.490353 -7.991793,28.506313 c -0.510067,3.690267 1.605473,3.749607 1.92684,1.149807 c 6.087147,-24.640807 38.506767,-17.964047 37.38954,5.20892 c -0.929387,7.77608 -8.443227,18.451973 -17.84168,28.311387 z" />
  </g>
</svg>