<?xml version="1.0" encoding="utf-8" standalone="yes"?>
<svg xmlns="http://www.w3.org/2000/svg" width="480px" height="640px" version="1.1">
  <rect width="71" height="95" rx="5" ry="5" x="0.5" y="0.5" style="fill:#ffffff;stroke:#000000;stroke-width:1" transform="matrix(6.66666666667,0,0,6.66666666667,0,0)" />
  <g style="fill:#015aff">
    <path d="m 43.182393,97.434473 l 4.780107,-3.515733 c 4.148493,6.755267 8.788053,11.2046 15.88538,10.440933 c 10.648467,-0.731733 15.06074,-11.8944 12.832873,-20.3052 c -2.155247,-7.545933 -10.972647,-11.2218 -17.98286,-7.1986 c -1.65458,0.953333 -3.251027,1.731933 -3.563167,1.731933 c -0.73528,0 -2.399647,-3.311067 -2.172173,-4.3212 c 4.704847,-6.871067 16.129787,-18.9082 16.129787,-18.9082 l -17.84984,0 l 0,8.0608 l -6.8505,0 l 0,-14.463733 l 34.886713,0 l 0,4.907467 c 0,0 -9.347047,9.6942 -12.436067,15.0034 c 7.607793,0.278267 13.739933,5.0996 15.941273,12.722067 c 1.284493,4.0132 0.70876,13.1926 -0.97254,17.1492 c -2.808307,6.595133 -10.479133,11.946067 -17.49162,12.254067 c -11.773393,0.7908 -18.01918,-7.457467 -21.137367,-13.5572 z" />
    <path d="m 436.817607,542.565527 l -4.780107,3.515733 c -4.148493,-6.755267 -8.788053,-11.2046 -15.88538,-10.440933 c -10.648467,0.731733 -15.06074,11.8944 -12.832873,20.3052 c 2.155247,7.545933 10.972647,11.2218 17.98286,7.1986 c 1.65458,-0.953333 3.251027,-1.731933 3.563167,-1.731933 c 0.73528,0 2.399647,3.311067 2.172173,4.3212 c -4.704847,6.871067 -16.129787,18.9082 -16.129787,18.9082 l 17.84984,0 l 0,-8.0608 l 6.8505,0 l 0,14.463733 l -34.886713,0 l 0,-4.907467 c 0,0 9.347047,-9.6942 12.436067,-15.0034 c -7.607793,-0.278267 -13.739933,-5.0996 -15.941273,-12.722067 c -1.284493,-4.0132 -0.70876,-13.1926 0.97254,-17.1492 c 2.808307,-6.595133 10.479133,-11.946067 17.49162,-12.254067 c 11.773393,-0.7908 18.01918,7.457467 21.137367,13.5572 z" />
    <path d="m 63.333333,159.395559 c -4.247093,-6.445835 -8.71532,-12.710661 -14.299139,-18.062221 c 5.583819,-5.35156 10.052045,-11.616389 14.299139,-18.062224 c 4.247101,6.445835 8.715328,12.710664 14.299147,18.062224 c -5.583819,5.35156 -10.052045,11.616387 -14.299147,18.062221 z" />
    <path d="m 416.666667,480.604441 c 4.247093,6.445835 8.71532,12.710661 14.299139,18.062221 c -5.583819,5.35156 -10.052045,11.616389 -14.299139,18.062224 c -4.247101,-6.445835 -8.715328,-12.710664 -14.299147,-18.062224 c 5.583819,-5.35156 10.052045,-11.616387 14.299147,-18.062221 z" />
    <path d="m 240,178.488897 c -10.617733,-16.114587 -21.7883,-31.776653 -35.747847,-45.155553 c 13.959547,-13.3789 25.130113,-29.040973 35.747847,-45.15556 c 10.617753,16.114587 21.78832,31.77666 35.747867,45.15556 c -13.959547,13.3789 -25.130113,29.040967 -35.747867,45.155553 z" />
    <path d="m 240,365.155563 c -10.617733,-16.114587 -21.7883,-31.776653 -35.747847,-45.155553 c 13.959547,-13.3789 25.130113,-29.040973 35.747847,-45.15556 c 10.617753,16.114587 21.78832,31.77666 35.747867,45.15556 c -13.959547,13.3789 -25.130113,29.040967 -35.747867,45.155553 z" />
    <path d="m 240,461.511103 c -10.617733,16.114587 -21.7883,31.776653 -35.747847,45.155553 c 13.959547,13.3789 25.130113,29.040973 35.747847,45.15556 c 10.617753,-16.114587 21.78832,-31.77666 35.747867,-45.15556 c -13.959547,-13.3789 -25.130113,-29.040967 -35.747867,-45.155553 z" />
  </g>
</svg>
