<?xml version="1.0" encoding="utf-8" standalone="yes"?>
<svg xmlns="http://www.w3.org/2000/svg" width="480px" height="640px" version="1.1">
  <rect width="71" height="95" rx="5" ry="5" x="0.5" y="0.5" style="fill:#ffffff;stroke:#000000;stroke-width:1" transform="matrix(6.66666666667,0,0,6.66666666667,0,0)" />
  <g style="fill:#c8102e">
    <path d="m 43.182393,97.434473 l 4.780107,-3.515733 c 4.148493,6.755267 8.788053,11.2046 15.88538,10.440933 c 10.648467,-0.731733 15.06074,-11.8944 12.832873,-20.3052 c -2.155247,-7.545933 -10.972647,-11.2218 -17.98286,-7.1986 c -1.65458,0.953333 -3.251027,1.731933 -3.563167,1.731933 c -0.73528,0 -2.399647,-3.311067 -2.172173,-4.3212 c 4.704847,-6.871067 16.129787,-18.9082 16.129787,-18.9082 l -17.84984,0 l 0,8.0608 l -6.8505,0 l 0,-14.463733 l 34.886713,0 l 0,4.907467 c 0,0 -9.347047,9.6942 -12.436067,15.0034 c 7.607793,0.278267 13.739933,5.0996 15.941273,12.722067 c 1.284493,4.0132 0.70876,13.1926 -0.97254,17.1492 c -2.808307,6.595133 -10.479133,11.946067 -17.49162,12.254067 c -11.773393,0.7908 -18.01918,-7.457467 -21.137367,-13.5572 z" />
    <path d="m 436.817607,542.565527 l -4.780107,3.515733 c -4.148493,-6.755267 -8.788053,-11.2046 -15.88538,-10.440933 c -10.648467,0.731733 -15.06074,11.8944 -12.832873,20.3052 c 2.155247,7.545933 10.972647,11.2218 17.98286,7.1986 c 1.65458,-0.953333 3.251027,-1.731933 3.563167,-1.731933 c 0.73528,0 2.399647,3.311067 2.172173,4.3212 c -4.704847,6.871067 -16.129787,18.9082 -16.129787,18.9082 l 17.84984,0 l 0,-8.0608 l 6.8505,0 l 0,14.463733 l -34.886713,0 l 0,-4.907467 c 0,0 9.347047,-9.6942 12.436067,-15.0034 c -7.607793,-0.278267 -13.739933,-5.0996 -15.941273,-12.722067 c -1.284493,-4.0132 -0.70876,-13.1926 0.97254,-17.1492 c 2.808307,-6.595133 10.479133,-11.946067 17.49162,-12.254067 c 11.773393,-0.7908 18.01918,7.457467 21.137367,13.5572 z" />
    <path d="m 63.333333,159.395559 l -9.785363,-12.535379 c -3.759373,-4.533061 -6.764909,-9.441517 -7.044344,-13.669405 c -0.320496,-4.829621 2.713248,-9.674869 8.205635,-9.909699 c 5.489083,-0.234696 7.717123,3.723851 8.624072,6.987528 c 0.907032,-3.263685 3.135072,-7.222224 8.624155,-6.987528 c 5.492389,0.234829 8.526139,5.080077 8.205635,9.909699 c -0.279427,4.227885 -3.284963,9.136344 -7.044344,13.669405 z" />
    <path d="m 416.666667,480.604441 l 9.785363,12.535379 c 3.759373,4.533061 6.764909,9.441517 7.044344,13.669405 c 0.320496,4.829621 -2.713248,9.674869 -8.205635,9.909699 c -5.489083,0.234696 -7.717123,-3.723851 -8.624072,-6.987528 c -0.907032,3.263685 -3.135072,7.222224 -8.624155,6.987528 c -5.492389,-0.234829 -8.526139,-5.080077 -8.205635,-9.909699 c 0.279427,-4.227885 3.284963,-9.136344 7.044344,-13.669405 z" />
    <path d="m 240,178.488897 l -24.463407,-31.338447 c -9.398433,-11.332653 -16.912273,-23.603793 -17.61086,-34.173513 c -0.80124,-12.074053 6.78312,-24.187173 20.514087,-24.774247 c 13.722707,-0.58674 19.292807,9.309627 21.56018,17.46882 c 2.26758,-8.159213 7.83768,-18.05556 21.560387,-17.46882 c 13.730973,0.587073 21.315347,12.700193 20.514087,24.774247 c -0.698567,10.569713 -8.212407,22.84086 -17.61086,34.173513 z" />
    <path d="m 240,365.155563 l -24.463407,-31.338447 c -9.398433,-11.332653 -16.912273,-23.603793 -17.61086,-34.173513 c -0.80124,-12.074053 6.78312,-24.187173 20.514087,-24.774247 c 13.722707,-0.58674 19.292807,9.309627 21.56018,17.46882 c 2.26758,-8.159213 7.83768,-18.05556 21.560387,-17.46882 c 13.730973,0.587073 21.315347,12.700193 20.514087,24.774247 c -0.698567,10.569713 -8.212407,22.84086 -17.61086,34.173513 z" />
    <path d="m 240,461.511103 l -24.463407,31.338447 c -9.398433,11.332653 -16.912273,23.603793 -17.61086,34.173513 c -0.80124,12.074053 6.78312,24.187173 20.514087,24.774247 c 13.722707,0.58674 19.292807,-9.309627 21.56018,-17.46882 c 2.26758,8.159213 7.83768,18.05556 21.560387,17.46882 c 13.730973,-0.587073 21.315347,-12.700193 20.514087,-24.774247 c -0.698567,-10.569713 -8.212407,-22.84086 -17.61086,-34.173513 z" />
  </g>
</svg>