<?xml version="1.0" encoding="utf-8" standalone="yes"?>
<svg xmlns="http://www.w3.org/2000/svg" width="480px" height="640px" version="1.1">
  <rect width="71" height="95" rx="5" ry="5" x="0.5" y="0.5" style="fill:#ffffff;stroke:#000000;stroke-width:1" transform="matrix(6.66666666667,0,0,6.66666666667,0,0)" />
  <g style="fill:#000000">
    <path d="m 43.182393,97.434473 l 4.780107,-3.515733 c 4.148493,6.755267 8.788053,11.2046 15.88538,10.440933 c 10.648467,-0.731733 15.06074,-11.8944 12.832873,-20.3052 c -2.155247,-7.545933 -10.972647,-11.2218 -17.98286,-7.1986 c -1.65458,0.953333 -3.251027,1.731933 -3.563167,1.731933 c -0.73528,0 -2.399647,-3.311067 -2.172173,-4.3212 c 4.704847,-6.871067 16.129787,-18.9082 16.129787,-18.9082 l -17.84984,0 l 0,8.0608 l -6.8505,0 l 0,-14.463733 l 34.886713,0 l 0,4.907467 c 0,0 -9.347047,9.6942 -12.436067,15.0034 c 7.607793,0.278267 13.739933,5.0996 15.941273,12.722067 c 1.284493,4.0132 0.70876,13.1926 -0.97254,17.1492 c -2.808307,6.595133 -10.479133,11.946067 -17.49162,12.254067 c -11.773393,0.7908 -18.01918,-7.457467 -21.137367,-13.5572 z" />
    <path d="m 436.817607,542.565527 l -4.780107,3.515733 c -4.148493,-6.755267 -8.788053,-11.2046 -15.88538,-10.440933 c -10.648467,0.731733 -15.06074,11.8944 -12.832873,20.3052 c 2.155247,7.545933 10.972647,11.2218 17.98286,7.1986 c 1.65458,-0.953333 3.251027,-1.731933 3.563167,-1.731933 c 0.73528,0 2.399647,3.311067 2.172173,4.3212 c -4.704847,6.871067 -16.129787,18.9082 -16.129787,18.9082 l 17.84984,0 l 0,-8.0608 l 6.8505,0 l 0,14.463733 l -34.886713,0 l 0,-4.907467 c 0,0 9.347047,-9.6942 12.436067,-15.0034 c -7.607793,-0.278267 -13.739933,-5.0996 -15.941273,-12.722067 c -1.284493,-4.0132 -0.70876,-13.1926 0.97254,-17.1492 c 2.808307,-6.595133 10.479133,-11.946067 17.49162,-12.254067 c 11.773393,-0.7908 18.01918,7.457467 21.137367,13.5572 z" />
    <path d="m 63.333333,123.219197 l -9.785363,10.905779 c -3.759373,3.943765 -6.764909,8.21412 -7.136688,11.324555 c -0.446885,9.269187 12.520965,11.939891 14.955824,2.083568 c 0.128544,-1.039917 0.97476,-1.016184 0.770736,0.459923 c -0.222016,4.006384 -1.474781,7.750952 -3.196717,11.402525 c 2.902224,0 6.145672,0 8.784491,0 c -1.721859,-3.651573 -2.974699,-7.396141 -3.196717,-11.402525 c -0.204027,-1.476107 0.642189,-1.499843 0.770736,-0.459923 c 2.434859,9.856323 15.402707,7.185619 14.955816,-2.083568 c -0.371755,-3.110432 -3.377291,-7.380789 -7.136672,-11.324555 z" />
    <path d="m 416.666667,516.780803 l 9.785363,-10.905779 c 3.759373,-3.943765 6.764909,-8.21412 7.136688,-11.324555 c 0.446885,-9.269187 -12.520965,-11.939891 -14.955824,-2.083568 c -0.128544,1.039917 -0.97476,1.016184 -0.770736,-0.459923 c 0.222016,-4.006384 1.474781,-7.750952 3.196717,-11.402525 c -2.902224,0 -6.145672,0 -8.784491,0 c 1.721859,3.651573 2.974699,7.396141 3.196717,11.402525 c 0.204027,1.476107 -0.642189,1.499843 -0.770736,0.459923 c -2.434859,-9.856323 -15.402707,-7.185619 -14.955816,2.083568 c 0.371755,3.110432 3.377291,7.380789 7.136672,11.324555 z" />
    <path d="m 240,88.047993 l -24.463407,27.264447 c -9.398433,9.859413 -16.912273,20.5353 -17.84172,28.311387 c -1.117213,23.172967 31.302413,29.849727 37.38956,5.20892 c 0.32136,-2.599793 2.4369,-2.54046 1.92684,1.149807 c -0.55504,10.01596 -3.686953,19.37738 -7.991793,28.506313 c 7.25556,0 15.36418,0 21.961227,0 c -4.304647,-9.128933 -7.436747,-18.490353 -7.991793,-28.506313 c -0.510067,-3.690267 1.605473,-3.749607 1.92684,-1.149807 c 6.087147,24.640807 38.506767,17.964047 37.38954,-5.20892 c -0.929387,-7.77608 -8.443227,-18.451973 -17.84168,-28.311387 z" />
    <path d="m 240,274.71466 l -24.463407,27.264447 c -9.398433,9.859413 -16.912273,20.5353 -17.84172,28.311387 c -1.117213,23.172967 31.302413,29.849727 37.38956,5.20892 c 0.32136,-2.599793 2.4369,-2.54046 1.92684,1.149807 c -0.55504,10.01596 -3.686953,19.37738 -7.991793,28.506313 c 7.25556,0 15.36418,0 21.961227,0 c -4.304647,-9.128933 -7.436747,-18.490353 -7.991793,-28.506313 c -0.510067,-3.690267 1.605473,-3.749607 1.92684,-1.149807 c 6.087147,24.640807 38.506767,17.964047 37.38954,-5.20892 c -0.929387,-7.77608 -8.443227,-18.451973 -17.84168,-28.311387 z" />
    <path d="m 240,551.952007 l -24.463407,-27.264447 c -9.398433,-9.859413 -16.912273,-20.5353 -17.84172,-28.311387 c -1.117213,-23.172967 31.302413,-29.849727 37.38956,-5.20892 c 0.32136,2.599793 2.4369,2.54046 1.92684,-1.149807 c -0.55504,-10.01596 -3.686953,-19.37738 -7.991793,-28.506313 c 7.25556,0 15.36418,0 21.961227,0 c -4.304647,9.128933 -7.436747,18.490353 -7.991793,28.506313 c -0.510067,3.690267 1.605473,3.749607 1.92684,1.149807 c 6.087147,-24.640807 38.506767,-17.964047 37.38954,5.20892 c -0.929387,7.77608 -8.443227,18.451973 -17.84168,28.311387 z" />
  </g>
</svg>