<?xml version="1.0" encoding="utf-8" standalone="yes"?>
<svg xmlns="http://www.w3.org/2000/svg" width="480px" height="640px" version="1.1">
  <rect width="71" height="95" rx="5" ry="5" x="0.5" y="0.5" style="fill:#ffffff;stroke:#000000;stroke-width:1" transform="matrix(6.66666666667,0,0,6.66666666667,0,0)" />
  <g style="fill:#015aff">
    <path d="m 43.76736,94.970207 l 6.086233,-0.058333 c 1.161067,3.747533 3.730047,7.5568 7.218327,8.613867 c 9.854853,2.357867 16.195093,-3.252333 18.282787,-9.720133 c 2.532673,-7.845067 -0.05644,-18.8612 -6.841087,-22.771467 c -5.621693,-3.2424 -13.97456,-0.507467 -17.810913,6.428267 l -4.26232,-2.656067 l 2.288267,-25.851067 l 27.845073,0 l 0,6.110467 l -22.5643,0 l -0.358053,10.769667 c 4.85744,-3.4742 12.322427,-3.437133 17.177233,-1.0004 c 9.194633,4.467 13.466553,14.623267 11.6814,26.592933 c -2.47698,11.905467 -7.939127,18.651733 -20.259107,19.615067 c -13.70362,0.126067 -18.54168,-9.4712 -18.48354,-16.072067 z" />
    <path d="m 436.23264,545.029793 l -6.086233,0.058333 c -1.161067,-3.747533 -3.730047,-7.5568 -7.218327,-8.613867 c -9.854853,-2.357867 -16.195093,3.252333 -18.282787,9.720133 c -2.532673,7.845067 0.05644,18.8612 6.841087,22.771467 c 5.621693,3.2424 13.97456,0.507467 17.810913,-6.428267 l 4.26232,2.656067 l -2.288267,25.851067 l -27.845073,0 l 0,-6.110467 l 22.5643,0 l 0.358053,-10.769667 c -4.85744,3.4742 -12.322427,3.437133 -17.177233,1.0004 c -9.194633,-4.467 -13.466553,-14.623267 -11.6814,-26.592933 c 2.47698,-11.905467 7.939127,-18.651733 20.259107,-19.615067 c 13.70362,-0.126067 18.54168,9.4712 18.48354,16.072067 z" />
    <path d="m 63.333333,159.395559 c -4.247093,-6.445835 -8.71532,-12.710661 -14.299139,-18.062221 c 5.583819,-5.35156 10.052045,-11.616389 14.299139,-18.062224 c 4.247101,6.445835 8.715328,12.710664 14.299147,18.062224 c -5.583819,5.35156 -10.052045,11.616387 -14.299147,18.062221 z" />
    <path d="m 416.666667,480.604441 c 4.247093,6.445835 8.71532,12.710661 14.299139,18.062221 c -5.583819,5.35156 -10.052045,11.616389 -14.299139,18.062224 c -4.247101,-6.445835 -8.715328,-12.710664 -14.299147,-18.062224 c 5.583819,-5.35156 10.052045,-11.616387 14.299147,-18.062221 z" />
    <path d="m 143.333333,178.488897 c -10.617733,-16.114587 -21.7883,-31.776653 -35.747847,-45.155553 c 13.959547,-13.3789 25.130113,-29.040973 35.747847,-45.15556 c 10.617753,16.114587 21.78832,31.77666 35.747867,45.15556 c -13.959547,13.3789 -25.130113,29.040967 -35.747867,45.155553 z" />
    <path d="m 336.666667,178.488897 c -10.617733,-16.114587 -21.7883,-31.776653 -35.747847,-45.155553 c 13.959547,-13.3789 25.130113,-29.040973 35.747847,-45.15556 c 10.617753,16.114587 21.78832,31.77666 35.747867,45.15556 c -13.959547,13.3789 -25.130113,29.040967 -35.747867,45.155553 z" />
    <path d="m 240,365.155563 c -10.617733,-16.114587 -21.7883,-31.776653 -35.747847,-45.155553 c 13.959547,-13.3789 25.130113,-29.040973 35.747847,-45.15556 c 10.617753,16.114587 21.78832,31.77666 35.747867,45.15556 c -13.959547,13.3789 -25.130113,29.040967 -35.747867,45.155553 z" />
    <path d="m 143.333333,461.511103 c -10.617733,16.114587 -21.7883,31.776653 -35.747847,45.155553 c 13.959547,13.3789 25.130113,29.040973 35.747847,45.15556 c 10.617753,-16.114587 21.78832,-31.77666 35.747867,-45.15556 c -13.959547,-13.3789 -25.130113,-29.040967 -35.747867,-45.155553 z" />
    <path d="m 336.666667,461.511103 c -10.617733,16.114587 -21.7883,31.776653 -35.747847,45.155553 c 13.959547,13.3789 25.130113,29.040973 35.747847,45.15556 c 10.617753,-16.114587 21.78832,-31.77666 35.747867,-45.15556 c -13.959547,-13.3789 -25.130113,-29.040967 -35.747867,-45.155553 z" />
  </g>
</svg>
