<?xml version="1.0" encoding="utf-8" standalone="yes"?>
<svg xmlns="http://www.w3.org/2000/svg" width="480px" height="640px" version="1.1">
  <rect width="71" height="95" rx="5" ry="5" x="0.5" y="0.5" style="fill:#ffffff;stroke:#000000;stroke-width:1" transform="matrix(6.66666666667,0,0,6.66666666667,0,0)" />
  <g style="fill:#000000">
    <path d="m 43.76736,94.970207 l 6.086233,-0.058333 c 1.161067,3.747533 3.730047,7.5568 7.218327,8.613867 c 9.854853,2.357867 16.195093,-3.252333 18.282787,-9.720133 c 2.532673,-7.845067 -0.05644,-18.8612 -6.841087,-22.771467 c -5.621693,-3.2424 -13.97456,-0.507467 -17.810913,6.428267 l -4.26232,-2.656067 l 2.288267,-25.851067 l 27.845073,0 l 0,6.110467 l -22.5643,0 l -0.358053,10.769667 c 4.85744,-3.4742 12.322427,-3.437133 17.177233,-1.0004 c 9.194633,4.467 13.466553,14.623267 11.6814,26.592933 c -2.47698,11.905467 -7.939127,18.651733 -20.259107,19.615067 c -13.70362,0.126067 -18.54168,-9.4712 -18.48354,-16.072067 z" />
    <path d="m 436.23264,545.029793 l -6.086233,0.058333 c -1.161067,-3.747533 -3.730047,-7.5568 -7.218327,-8.613867 c -9.854853,-2.357867 -16.195093,3.252333 -18.282787,9.720133 c -2.532673,7.845067 0.05644,18.8612 6.841087,22.771467 c 5.621693,3.2424 13.97456,0.507467 17.810913,-6.428267 l 4.26232,2.656067 l -2.288267,25.851067 l -27.845073,0 l 0,-6.110467 l 22.5643,0 l 0.358053,-10.769667 c -4.85744,3.4742 -12.322427,3.437133 -17.177233,1.0004 c -9.194633,-4.467 -13.466553,-14.623267 -11.6814,-26.592933 c 2.47698,-11.905467 7.939127,-18.651733 20.259107,-19.615067 c 13.70362,-0.126067 18.54168,9.4712 18.48354,16.072067 z" />
    <path d="m 63.333333,123.219197 l -9.785363,10.905779 c -3.759373,3.943765 -6.764909,8.21412 -7.136688,11.324555 c -0.446885,9.269187 12.520965,11.939891 14.955824,2.083568 c 0.128544,-1.039917 0.97476,-1.016184 0.770736,0.459923 c -0.222016,4.006384 -1.474781,7.750952 -3.196717,11.402525 c 2.902224,0 6.145672,0 8.784491,0 c -1.721859,-3.651573 -2.974699,-7.396141 -3.196717,-11.402525 c -0.204027,-1.476107 0.642189,-1.499843 0.770736,-0.459923 c 2.434859,9.856323 15.402707,7.185619 14.955816,-2.083568 c -0.371755,-3.110432 -3.377291,-7.380789 -7.136672,-11.324555 z" />
    <path d="m 416.666667,516.780803 l 9.785363,-10.905779 c 3.759373,-3.943765 6.764909,-8.21412 7.136688,-11.324555 c 0.446885,-9.269187 -12.520965,-11.939891 -14.955824,-2.083568 c -0.128544,1.039917 -0.97476,1.016184 -0.770736,-0.459923 c 0.222016,-4.006384 1.474781,-7.750952 3.196717,-11.402525 c -2.902224,0 -6.145672,0 -8.784491,0 c 1.721859,3.651573 2.974699,7.396141 3.196717,11.402525 c 0.204027,1.476107 -0.642189,1.499843 -0.770736,0.459923 c -2.434859,-9.856323 -15.402707,-7.185619 -14.955816,2.083568 c 0.371755,3.110432 3.377291,7.380789 7.136672,11.324555 z" />
    <path d="m 143.333333,88.047993 l -24.463407,27.264447 c -9.398433,9.859413 -16.912273,20.5353 -17.84172,28.311387 c -1.117213,23.172967 31.302413,29.849727 37.38956,5.20892 c 0.32136,-2.599793 2.4369,-2.54046 1.92684,1.149807 c -0.55504,10.01596 -3.686953,19.37738 -7.991793,28.506313 c 7.25556,0 15.36418,0 21.961227,0 c -4.304647,-9.128933 -7.436747,-18.490353 -7.991793,-28.506313 c -0.510067,-3.690267 1.605473,-3.749607 1.92684,-1.149807 c 6.087147,24.640807 38.506767,17.964047 37.38954,-5.20892 c -0.929387,-7.77608 -8.443227,-18.451973 -17.84168,-28.311387 z" />
    <path d="m 336.666667,88.047993 l -24.463407,27.264447 c -9.398433,9.859413 -16.912273,20.5353 -17.84172,28.311387 c -1.117213,23.172967 31.302413,29.849727 37.38956,5.20892 c 0.32136,-2.599793 2.4369,-2.54046 1.92684,1.149807 c -0.55504,10.01596 -3.686953,19.37738 -7.991793,28.506313 c 7.25556,0 15.36418,0 21.961227,0 c -4.304647,-9.128933 -7.436747,-18.490353 -7.991793,-28.506313 c -0.510067,-3.690267 1.605473,-3.749607 1.92684,-1.149807 c 6.087147,24.640807 38.506767,17.964047 37.38954,-5.20892 c -0.929387,-7.77608 -8.443227,-18.451973 -17.84168,-28.311387 z" />
    <path d="m 240,274.71466 l -24.463407,27.264447 c -9.398433,9.859413 -16.912273,20.5353 -17.84172,28.311387 c -1.117213,23.172967 31.302413,29.849727 37.38956,5.20892 c 0.32136,-2.599793 2.4369,-2.54046 1.92684,1.149807 c -0.55504,10.01596 -3.686953,19.37738 -7.991793,28.506313 c 7.25556,0 15.36418,0 21.961227,0 c -4.304647,-9.128933 -7.436747,-18.490353 -7.991793,-28.506313 c -0.510067,-3.690267 1.605473,-3.749607 1.92684,-1.149807 c 6.087147,24.640807 38.506767,17.964047 37.38954,-5.20892 c -0.929387,-7.77608 -8.443227,-18.451973 -17.84168,-28.311387 z" />
    <path d="m 143.333333,551.952007 l -24.463407,-27.264447 c -9.398433,-9.859413 -16.912273,-20.5353 -17.84172,-28.311387 c -1.117213,-23.172967 31.302413,-29.849727 37.38956,-5.20892 c 0.32136,2.599793 2.4369,2.54046 1.92684,-1.149807 c -0.55504,-10.01596 -3.686953,-19.37738 -7.991793,-28.506313 c 7.25556,0 15.36418,0 21.961227,0 c -4.304647,9.128933 -7.436747,18.490353 -7.991793,28.506313 c -0.510067,3.690267 1.605473,3.749607 1.92684,1.149807 c 6.087147,-24.640807 38.506767,-17.964047 37.38954,5.20892 c -0.929387,7.77608 -8.443227,18.451973 -17.84168,28.311387 z" />
    <path d="m 336.666667,551.952007 l -24.463407,-27.264447 c -9.398433,-9.859413 -16.912273,-20.5353 -17.84172,-28.311387 c -1.117213,-23.172967 31.302413,-29.849727 37.38956,-5.20892 c 0.32136,2.599793 2.4369,2.54046 1.92684,-1.149807 c -0.55504,-10.01596 -3.686953,-19.37738 -7.991793,-28.506313 c 7.25556,0 15.36418,0 21.961227,0 c -4.304647,9.128933 -7.436747,18.490353 -7.991793,28.506313 c -0.510067,3.690267 1.605473,3.749607 1.92684,1.149807 c 6.087147,-24.640807 38.506767,-17.964047 37.38954,5.20892 c -0.929387,7.77608 -8.443227,18.451973 -17.84168,28.311387 z" />
  </g>
</svg>