<?xml version="1.0" encoding="utf-8" standalone="yes"?>
<svg xmlns="http://www.w3.org/2000/svg" width="480px" height="640px" version="1.1">
  <rect width="71" height="95" rx="5" ry="5" x="0.5" y="0.5" style="fill:#ffffff;stroke:#000000;stroke-width:1" transform="matrix(6.66666666667,0,0,6.66666666667,0,0)" />
  <g style="fill:#c8102e">
    <path d="m 45.099593,91.94214 c -0.764447,-5.2256 -0.745067,-18.734733 -0.120413,-22.731 c 1.92796,-12.242667 6.603833,-17.845333 14.436467,-19.6736 c 7.607793,-1.7812 18.295013,0.202067 20.638973,10.4344 l -6.359613,0.124133 c -3.43974,-6.9184 -12.143313,-5.0706 -17.046653,-2.0598 c -3.911427,2.397333 -5.679833,12.4078 -4.922727,13.0236 c 0,0 7.397447,-5.4794 13.22968,-5.075267 c 12.4626,1.2984 17.603007,12.107 17.167447,22.312133 c -0.39662,12.277133 -4.288853,22.095267 -17.498967,22.748333 c -12.559487,-0.4854 -18.314207,-7.332333 -19.523627,-19.102 z m 30.974547,-3.243267 c 0.06774,-8.517333 -3.79778,-14.901 -11.119967,-15.600733 c -7.315033,-0.704667 -14.69554,6.4354 -14.185093,15.117733 c 0.510447,8.719533 3.884893,16.0542 12.7578,16.014867 c 9.542907,-0.037667 12.501353,-9.4684 12.54726,-15.531867 z" />
    <path d="m 434.900407,548.05786 c 0.764447,5.2256 0.745067,18.734733 0.120413,22.731 c -1.92796,12.242667 -6.603833,17.845333 -14.436467,19.6736 c -7.607793,1.7812 -18.295013,-0.202067 -20.638973,-10.4344 l 6.359613,-0.124133 c 3.43974,6.9184 12.143313,5.0706 17.046653,2.0598 c 3.911427,-2.397333 5.679833,-12.4078 4.922727,-13.0236 c 0,0 -7.397447,5.4794 -13.22968,5.075267 c -12.4626,-1.2984 -17.603007,-12.107 -17.167447,-22.312133 c 0.39662,-12.277133 4.288853,-22.095267 17.498967,-22.748333 c 12.559487,0.4854 18.314207,7.332333 19.523627,19.102 z m -30.974547,3.243267 c -0.06774,8.517333 3.79778,14.901 11.119967,15.600733 c 7.315033,0.704667 14.69554,-6.4354 14.185093,-15.117733 c -0.510447,-8.719533 -3.884893,-16.0542 -12.7578,-16.014867 c -9.542907,0.037667 -12.501353,9.4684 -12.54726,15.531867 z" />
    <path d="m 63.333333,159.395559 c -4.247093,-6.445835 -8.71532,-12.710661 -14.299139,-18.062221 c 5.583819,-5.35156 10.052045,-11.616389 14.299139,-18.062224 c 4.247101,6.445835 8.715328,12.710664 14.299147,18.062224 c -5.583819,5.35156 -10.052045,11.616387 -14.299147,18.062221 z" />
    <path d="m 416.666667,480.604441 c 4.247093,6.445835 8.71532,12.710661 14.299139,18.062221 c -5.583819,5.35156 -10.052045,11.616389 -14.299139,18.062224 c -4.247101,-6.445835 -8.715328,-12.710664 -14.299147,-18.062224 c 5.583819,-5.35156 10.052045,-11.616387 14.299147,-18.062221 z" />
    <path d="m 143.333333,178.488897 c -10.617733,-16.114587 -21.7883,-31.776653 -35.747847,-45.155553 c 13.959547,-13.3789 25.130113,-29.040973 35.747847,-45.15556 c 10.617753,16.114587 21.78832,31.77666 35.747867,45.15556 c -13.959547,13.3789 -25.130113,29.040967 -35.747867,45.155553 z" />
    <path d="m 336.666667,178.488897 c -10.617733,-16.114587 -21.7883,-31.776653 -35.747847,-45.155553 c 13.959547,-13.3789 25.130113,-29.040973 35.747847,-45.15556 c 10.617753,16.114587 21.78832,31.77666 35.747867,45.15556 c -13.959547,13.3789 -25.130113,29.040967 -35.747867,45.155553 z" />
    <path d="m 143.333333,365.155563 c -10.617733,-16.114587 -21.7883,-31.776653 -35.747847,-45.155553 c 13.959547,-13.3789 25.130113,-29.040973 35.747847,-45.15556 c 10.617753,16.114587 21.78832,31.77666 35.747867,45.15556 c -13.959547,13.3789 -25.130113,29.040967 -35.747867,45.155553 z" />
    <path d="m 336.666667,365.155563 c -10.617733,-16.114587 -21.7883,-31.776653 -35.747847,-45.155553 c 13.959547,-13.3789 25.130113,-29.040973 35.747847,-45.15556 c 10.617753,16.114587 21.78832,31.77666 35.747867,45.15556 c -13.959547,13.3789 -25.130113,29.040967 -35.747867,45.155553 z" />
    <path d="m 143.333333,461.511103 c -10.617733,16.114587 -21.7883,31.776653 -35.747847,45.155553 c 13.959547,13.3789 25.130113,29.040973 35.747847,45.15556 c 10.617753,-16.114587 21.78832,-31.77666 35.747867,-45.15556 c -13.959547,-13.3789 -25.130113,-29.040967 -35.747867,-45.155553 z" />
    <path d="m 336.666667,461.511103 c -10.617733,16.114587 -21.7883,31.776653 -35.747847,45.155553 c 13.959547,13.3789 25.130113,29.040973 35.747847,45.15556 c 10.617753,-16.114587 21.78832,-31.77666 35.747867,-45.15556 c -13.959547,-13.3789 -25.130113,-29.040967 -35.747867,-45.155553 z" />
  </g>
</svg>