<?xml version="1.0" encoding="utf-8" standalone="yes"?>
<svg xmlns="http://www.w3.org/2000/svg" width="480px" height="640px" version="1.1">
  <rect width="71" height="95" rx="5" ry="5" x="0.5" y="0.5" style="fill:#ffffff;stroke:#000000;stroke-width:1" transform="matrix(6.66666666667,0,0,6.66666666667,0,0)" />
  <g style="fill:#c8102e">
    <path d="m 45.099593,91.94214 c -0.764447,-5.2256 -0.745067,-18.734733 -0.120413,-22.731 c 1.92796,-12.242667 6.603833,-17.845333 14.436467,-19.6736 c 7.607793,-1.7812 18.295013,0.202067 20.638973,10.4344 l -6.359613,0.124133 c -3.43974,-6.9184 -12.143313,-5.0706 -17.046653,-2.0598 c -3.911427,2.397333 -5.679833,12.4078 -4.922727,13.0236 c 0,0 7.397447,-5.4794 13.22968,-5.075267 c 12.4626,1.2984 17.603007,12.107 17.167447,22.312133 c -0.39662,12.277133 -4.288853,22.095267 -17.498967,22.748333 c -12.559487,-0.4854 -18.314207,-7.332333 -19.523627,-19.102 z m 30.974547,-3.243267 c 0.06774,-8.517333 -3.79778,-14.901 -11.119967,-15.600733 c -7.315033,-0.704667 -14.69554,6.4354 -14.185093,15.117733 c 0.510447,8.719533 3.884893,16.0542 12.7578,16.014867 c 9.542907,-0.037667 12.501353,-9.4684 12.54726,-15.531867 z" />
    <path d="m 434.900407,548.05786 c 0.764447,5.2256 0.745067,18.734733 0.120413,22.731 c -1.92796,12.242667 -6.603833,17.845333 -14.436467,19.6736 c -7.607793,1.7812 -18.295013,-0.202067 -20.638973,-10.4344 l 6.359613,-0.124133 c 3.43974,6.9184 12.143313,5.0706 17.046653,2.0598 c 3.911427,-2.397333 5.679833,-12.4078 4.922727,-13.0236 c 0,0 -7.397447,5.4794 -13.22968,5.075267 c -12.4626,-1.2984 -17.603007,-12.107 -17.167447,-22.312133 c 0.39662,-12.277133 4.288853,-22.095267 17.498967,-22.748333 c 12.559487,0.4854 18.314207,7.332333 19.523627,19.102 z m -30.974547,3.243267 c -0.06774,8.517333 3.79778,14.901 11.119967,15.600733 c 7.315033,0.704667 14.69554,-6.4354 14.185093,-15.117733 c -0.510447,-8.719533 -3.884893,-16.0542 -12.7578,-16.014867 c -9.542907,0.037667 -12.501353,9.4684 -12.54726,15.531867 z" />
    <path d="m 63.333333,159.395559 l -9.785363,-12.535379 c -3.759373,-4.533061 -6.764909,-9.441517 -7.044344,-13.669405 c -0.320496,-4.829621 2.713248,-9.674869 8.205635,-9.909699 c 5.489083,-0.234696 7.717123,3.723851 8.624072,6.987528 c 0.907032,-3.263685 3.135072,-7.222224 8.624155,-6.987528 c 5.492389,0.234829 8.526139,5.080077 8.205635,9.909699 c -0.279427,4.227885 -3.284963,9.136344 -7.044344,13.669405 z" />
    <path d="m 416.666667,480.604441 l 9.785363,12.535379 c 3.759373,4.533061 6.764909,9.441517 7.044344,13.669405 c 0.320496,4.829621 -2.713248,9.674869 -8.205635,9.909699 c -5.489083,0.234696 -7.717123,-3.723851 -8.624072,-6.987528 c -0.907032,3.263685 -3.135072,7.222224 -8.624155,6.987528 c -5.492389,-0.234829 -8.526139,-5.080077 -8.205635,-9.909699 c 0.279427,-4.227885 3.284963,-9.136344 7.044344,-13.669405 z" />
    <path d="m 143.333333,178.488897 l -24.463407,-31.338447 c -9.398433,-11.332653 -16.912273,-23.603793 -17.61086,-34.173513 c -0.80124,-12.074053 6.78312,-24.187173 20.514087,-24.774247 c 13.722707,-0.58674 19.292807,9.309627 21.56018,17.46882 c 2.26758,-8.159213 7.83768,-18.05556 21.560387,-17.46882 c 13.730973,0.587073 21.315347,12.700193 20.514087,24.774247 c -0.698567,10.569713 -8.212407,22.84086 -17.61086,34.173513 z" />
    <path d="m 336.666667,178.488897 l -24.463407,-31.338447 c -9.398433,-11.332653 -16.912273,-23.603793 -17.61086,-34.173513 c -0.80124,-12.074053 6.78312,-24.187173 20.514087,-24.774247 c 13.722707,-0.58674 19.292807,9.309627 21.56018,17.46882 c 2.26758,-8.159213 7.83768,-18.05556 21.560387,-17.46882 c 13.730973,0.587073 21.315347,12.700193 20.514087,24.774247 c -0.698567,10.569713 -8.212407,22.84086 -17.61086,34.173513 z" />
    <path d="m 143.333333,365.155563 l -24.463407,-31.338447 c -9.398433,-11.332653 -16.912273,-23.603793 -17.61086,-34.173513 c -0.80124,-12.074053 6.78312,-24.187173 20.514087,-24.774247 c 13.722707,-0.58674 19.292807,9.309627 21.56018,17.46882 c 2.26758,-8.159213 7.83768,-18.05556 21.560387,-17.46882 c 13.730973,0.587073 21.315347,12.700193 20.514087,24.774247 c -0.698567,10.569713 -8.212407,22.84086 -17.61086,34.173513 z" />
    <path d="m 336.666667,365.155563 l -24.463407,-31.338447 c -9.398433,-11.332653 -16.912273,-23.603793 -17.61086,-34.173513 c -0.80124,-12.074053 6.78312,-24.187173 20.514087,-24.774247 c 13.722707,-0.58674 19.292807,9.309627 21.56018,17.46882 c 2.26758,-8.159213 7.83768,-18.05556 21.560387,-17.46882 c 13.730973,0.587073 21.315347,12.700193 20.514087,24.774247 c -0.698567,10.569713 -8.212407,22.84086 -17.61086,34.173513 z" />
    <path d="m 143.333333,461.511103 l -24.463407,31.338447 c -9.398433,11.332653 -16.912273,23.603793 -17.61086,34.173513 c -0.80124,12.074053 6.78312,24.187173 20.514087,24.774247 c 13.722707,0.58674 19.292807,-9.309627 21.56018,-17.46882 c 2.26758,8.159213 7.83768,18.05556 21.560387,17.46882 c 13.730973,-0.587073 21.315347,-12.700193 20.514087,-24.774247 c -0.698567,-10.569713 -8.212407,-22.84086 -17.61086,-34.173513 z" />
    <path d="m 336.666667,461.511103 l -24.463407,31.338447 c -9.398433,11.332653 -16.912273,23.603793 -17.61086,34.173513 c -0.80124,12.074053 6.78312,24.187173 20.514087,24.774247 c 13.722707,0.58674 19.292807,-9.309627 21.56018,-17.46882 c 2.26758,8.159213 7.83768,18.05556 21.560387,17.46882 c 13.730973,-0.587073 21.315347,-12.700193 20.514087,-24.774247 c -0.698567,-10.569713 -8.212407,-22.84086 -17.61086,-34.173513 z" />
  </g>
</svg>