<?xml version="1.0" encoding="utf-8" standalone="yes"?>
<svg xmlns="http://www.w3.org/2000/svg" width="480px" height="640px" version="1.1">
  <rect width="71" height="95" rx="5" ry="5" x="0.5" y="0.5" style="fill:#ffffff;stroke:#000000;stroke-width:1" transform="matrix(6.66666666667,0,0,6.66666666667,0,0)" />
  <g style="fill:#000000">
    <path d="m 45.099593,91.94214 c -0.764447,-5.2256 -0.745067,-18.734733 -0.120413,-22.731 c 1.92796,-12.242667 6.603833,-17.845333 14.436467,-19.6736 c 7.607793,-1.7812 18.295013,0.202067 20.638973,10.4344 l -6.359613,0.124133 c -3.43974,-6.9184 -12.143313,-5.0706 -17.046653,-2.0598 c -3.911427,2.397333 -5.679833,12.4078 -4.922727,13.0236 c 0,0 7.397447,-5.4794 13.22968,-5.075267 c 12.4626,1.2984 17.603007,12.107 17.167447,22.312133 c -0.39662,12.277133 -4.288853,22.095267 -17.498967,22.748333 c -12.559487,-0.4854 -18.314207,-7.332333 -19.523627,-19.102 z m 30.974547,-3.243267 c 0.06774,-8.517333 -3.79778,-14.901 -11.119967,-15.600733 c -7.315033,-0.704667 -14.69554,6.4354 -14.185093,15.117733 c 0.510447,8.719533 3.884893,16.0542 12.7578,16.014867 c 9.542907,-0.037667 12.501353,-9.4684 12.54726,-15.531867 z" />
    <path d="m 434.900407,548.05786 c 0.764447,5.2256 0.745067,18.734733 0.120413,22.731 c -1.92796,12.242667 -6.603833,17.845333 -14.436467,19.6736 c -7.607793,1.7812 -18.295013,-0.202067 -20.638973,-10.4344 l 6.359613,-0.124133 c 3.43974,6.9184 12.143313,5.0706 17.046653,2.0598 c 3.911427,-2.397333 5.679833,-12.4078 4.922727,-13.0236 c 0,0 -7.397447,5.4794 -13.22968,5.075267 c -12.4626,-1.2984 -17.603007,-12.107 -17.167447,-22.312133 c 0.39662,-12.277133 4.288853,-22.095267 17.498967,-22.748333 c 12.559487,0.4854 18.314207,7.332333 19.523627,19.102 z m -30.974547,3.243267 c -0.06774,8.517333 3.79778,14.901 11.119967,15.600733 c 7.315033,0.704667 14.69554,-6.4354 14.185093,-15.117733 c -0.510447,-8.719533 -3.884893,-16.0542 -12.7578,-16.014867 c -9.542907,0.037667 -12.501353,9.4684 -12.54726,15.531867 z" />
    <path d="m 63.333333,123.219197 l -9.785363,10.905779 c -3.759373,3.943765 -6.764909,8.21412 -7.136688,11.324555 c -0.446885,9.269187 12.520965,11.939891 14.955824,2.083568 c 0.128544,-1.039917 0.97476,-1.016184 0.770736,0.459923 c -0.222016,4.006384 -1.474781,7.750952 -3.196717,11.402525 c 2.902224,0 6.145672,0 8.784491,0 c -1.721859,-3.651573 -2.974699,-7.396141 -3.196717,-11.402525 c -0.204027,-1.476107 0.642189,-1.499843 0.770736,-0.459923 c 2.434859,9.856323 15.402707,7.185619 14.955816,-2.083568 c -0.371755,-3.110432 -3.377291,-7.380789 -7.136672,-11.324555 z" />
    <path d="m 416.666667,516.780803 l 9.785363,-10.905779 c 3.759373,-3.943765 6.764909,-8.21412 7.136688,-11.324555 c 0.446885,-9.269187 -12.520965,-11.939891 -14.955824,-2.083568 c -0.128544,1.039917 -0.97476,1.016184 -0.770736,-0.459923 c 0.222016,-4.006384 1.474781,-7.750952 3.196717,-11.402525 c -2.902224,0 -6.145672,0 -8.784491,0 c 1.721859,3.651573 2.974699,7.396141 3.196717,11.402525 c 0.204027,1.476107 -0.642189,1.499843 -0.770736,0.459923 c -2.434859,-9.856323 -15.402707,-7.185619 -14.955816,2.083568 c 0.371755,3.110432 3.377291,7.380789 7.136672,11.324555 z" />
    <path d="m 143.333333,88.047993 l -24.463407,27.264447 c -9.398433,9.859413 -16.912273,20.5353 -17.84172,28.311387 c -1.117213,23.172967 31.302413,29.849727 37.38956,5.20892 c 0.32136,-2.599793 2.4369,-2.54046 1.92684,1.149807 c -0.55504,10.01596 -3.686953,19.37738 -7.991793,28.506313 c 7.25556,0 15.36418,0 21.961227,0 c -4.304647,-9.128933 -7.436747,-18.490353 -7.991793,-28.506313 c -0.510067,-3.690267 1.605473,-3.749607 1.92684,-1.149807 c 6.087147,24.640807 38.506767,17.964047 37.38954,-5.20892 c -0.929387,-7.77608 -8.443227,-18.451973 -17.84168,-28.311387 z" />
    <path d="m 336.666667,88.047993 l -24.463407,27.264447 c -9.398433,9.859413 -16.912273,20.5353 -17.84172,28.311387 c -1.117213,23.172967 31.302413,29.849727 37.38956,5.20892 c 0.32136,-2.599793 2.4369,-2.54046 1.92684,1.149807 c -0.55504,10.01596 -3.686953,19.37738 -7.991793,28.506313 c 7.25556,0 15.36418,0 21.961227,0 c -4.304647,-9.128933 -7.436747,-18.490353 -7.991793,-28.506313 c -0.510067,-3.690267 1.605473,-3.749607 1.92684,-1.149807 c 6.087147,24.640807 38.506767,17.964047 37.38954,-5.20892 c -0.929387,-7.77608 -8.443227,-18.451973 -17.84168,-28.311387 z" />
    <path d="m 143.333333,274.71466 l -24.463407,27.264447 c -9.398433,9.859413 -16.912273,20.5353 -17.84172,28.311387 c -1.117213,23.172967 31.302413,29.849727 37.38956,5.20892 c 0.32136,-2.599793 2.4369,-2.54046 1.92684,1.149807 c -0.55504,10.01596 -3.686953,19.37738 -7.991793,28.506313 c 7.25556,0 15.36418,0 21.961227,0 c -4.304647,-9.128933 -7.436747,-18.490353 -7.991793,-28.506313 c -0.510067,-3.690267 1.605473,-3.749607 1.92684,-1.149807 c 6.087147,24.640807 38.506767,17.964047 37.38954,-5.20892 c -0.929387,-7.77608 -8.443227,-18.451973 -17.84168,-28.311387 z" />
    <path d="m 336.666667,274.71466 l -24.463407,27.264447 c -9.398433,9.859413 -16.912273,20.5353 -17.84172,28.311387 c -1.117213,23.172967 31.302413,29.849727 37.38956,5.20892 c 0.32136,-2.599793 2.4369,-2.54046 1.92684,1.149807 c -0.55504,10.01596 -3.686953,19.37738 -7.991793,28.506313 c 7.25556,0 15.36418,0 21.961227,0 c -4.304647,-9.128933 -7.436747,-18.490353 -7.991793,-28.506313 c -0.510067,-3.690267 1.605473,-3.749607 1.92684,-1.149807 c 6.087147,24.640807 38.506767,17.964047 37.38954,-5.20892 c -0.929387,-7.77608 -8.443227,-18.451973 -17.84168,-28.311387 z" />
    <path d="m 143.333333,551.952007 l -24.463407,-27.264447 c -9.398433,-9.859413 -16.912273,-20.5353 -17.84172,-28.311387 c -1.117213,-23.172967 31.302413,-29.849727 37.38956,-5.20892 c 0.32136,2.599793 2.4369,2.54046 1.92684,-1.149807 c -0.55504,-10.01596 -3.686953,-19.37738 -7.991793,-28.506313 c 7.25556,0 15.36418,0 21.961227,0 c -4.304647,9.128933 -7.436747,18.490353 -7.991793,28.506313 c -0.510067,3.690267 1.605473,3.749607 1.92684,1.149807 c 6.087147,-24.640807 38.506767,-17.964047 37.38954,5.20892 c -0.929387,7.77608 -8.443227,18.451973 -17.84168,28.311387 z" />
    <path d="m 336.666667,551.952007 l -24.463407,-27.264447 c -9.398433,-9.859413 -16.912273,-20.5353 -17.84172,-28.311387 c -1.117213,-23.172967 31.302413,-29.849727 37.38956,-5.20892 c 0.32136,2.599793 2.4369,2.54046 1.92684,-1.149807 c -0.55504,-10.01596 -3.686953,-19.37738 -7.991793,-28.506313 c 7.25556,0 15.36418,0 21.961227,0 c -4.304647,9.128933 -7.436747,18.490353 -7.991793,28.506313 c -0.510067,3.690267 1.605473,3.749607 1.92684,1.149807 c 6.087147,-24.640807 38.506767,-17.964047 37.38954,5.20892 c -0.929387,7.77608 -8.443227,18.451973 -17.84168,28.311387 z" />
  </g>
</svg>