<?xml version="1.0" encoding="utf-8" standalone="yes"?>
<svg xmlns="http://www.w3.org/2000/svg" width="480px" height="640px" version="1.1">
  <rect width="71" height="95" rx="5" ry="5" x="0.5" y="0.5" style="fill:#ffffff;stroke:#000000;stroke-width:1" transform="matrix(6.66666666667,0,0,6.66666666667,0,0)" />
  <g style="fill:#000000">
    <path d="m 53.789213,111.037807 c 4.083393,-21.586867 8.430193,-37.792867 19.843107,-55.3812 l -23.198173,0 l 0,7.570933 l -6.15886,0 l 0,-14.272067 l 33.931307,0 l 4.184993,6.701133 c -12.121667,13.232467 -23.2153,56.0068 -21.25102,55.3812 z" />
    <path d="m 426.210787,528.962193 c -4.083393,21.586867 -8.430193,37.792867 -19.843107,55.3812 l 23.198173,0 l 0,-7.570933 l 6.15886,0 l 0,14.272067 l -33.931307,0 l -4.184993,-6.701133 c 12.121667,-13.232467 23.2153,-56.0068 21.25102,-55.3812 z" />
    <path d="m 63.3304,123.271107 c -7.389184,0.160259 -10.702544,8.469125 -5.230072,14.921437 c 0.793685,0.941141 0.875565,1.481221 -0.577992,0.577216 c -3.684467,-2.460709 -10.74928,-0.843053 -11.111053,6.679771 c -0.446885,9.269187 12.520965,11.939891 14.955824,2.083568 c 0.128544,-1.039917 0.97476,-1.016184 0.770736,0.459923 c -0.222016,4.006384 -1.474781,7.750952 -3.196717,11.402525 c 2.902224,0 6.145672,0 8.784491,0 c -1.721859,-3.651573 -2.974699,-7.396141 -3.196717,-11.402525 c -0.204027,-1.476107 0.642189,-1.499843 0.770736,-0.459923 c 2.434859,9.856323 15.402707,7.185619 14.955816,-2.083568 c -0.361696,-7.522824 -7.426579,-9.14048 -11.111045,-6.679771 c -1.453557,0.904008 -1.371677,0.363917 -0.577992,-0.577216 c 5.472472,-6.452312 2.159112,-14.761163 -5.229995,-14.921437 c 0,-0.000043 0,0.000035 -0.007549,0 z" />
    <path d="m 416.6696,516.728893 c 7.389184,-0.160259 10.702544,-8.469125 5.230072,-14.921437 c -0.793685,-0.941141 -0.875565,-1.481221 0.577992,-0.577216 c 3.684467,2.460709 10.74928,0.843053 11.111053,-6.679771 c 0.446885,-9.269187 -12.520965,-11.939891 -14.955824,-2.083568 c -0.128544,1.039917 -0.97476,1.016184 -0.770736,-0.459923 c 0.222016,-4.006384 1.474781,-7.750952 3.196717,-11.402525 c -2.902224,0 -6.145672,0 -8.784491,0 c 1.721859,3.651573 2.974699,7.396141 3.196717,11.402525 c 0.204027,1.476107 -0.642189,1.499843 -0.770736,0.459923 c -2.434859,-9.856323 -15.402707,-7.185619 -14.955816,2.083568 c 0.361696,7.522824 7.426579,9.14048 11.111045,6.679771 c 1.453557,-0.904008 1.371677,-0.363917 0.577992,0.577216 c -5.472472,6.452312 -2.159112,14.761163 5.229995,14.921437 c 0,0.000043 0,-0.000035 0.007549,0 z" />
    <path d="m 143.326,88.177767 c -18.47296,0.400647 -26.75636,21.172813 -13.07518,37.303593 c 1.984213,2.352853 2.188913,3.703053 -1.44498,1.44304 c -9.211167,-6.151773 -26.8732,-2.107633 -27.777633,16.699427 c -1.117213,23.172967 31.302413,29.849727 37.38956,5.20892 c 0.32136,-2.599793 2.4369,-2.54046 1.92684,1.149807 c -0.55504,10.01596 -3.686953,19.37738 -7.991793,28.506313 c 7.25556,0 15.36418,0 21.961227,0 c -4.304647,-9.128933 -7.436747,-18.490353 -7.991793,-28.506313 c -0.510067,-3.690267 1.605473,-3.749607 1.92684,-1.149807 c 6.087147,24.640807 38.506767,17.964047 37.38954,-5.20892 c -0.90424,-18.80706 -18.566447,-22.8512 -27.777613,-16.699427 c -3.633893,2.26002 -3.429193,0.909793 -1.44498,-1.44304 c 13.68118,-16.13078 5.39778,-36.902907 -13.074987,-37.303593 c 0,-0.000107 0,0.000087 -0.018873,0 z" />
    <path d="m 336.659333,88.177767 c -18.47296,0.400647 -26.75636,21.172813 -13.07518,37.303593 c 1.984213,2.352853 2.188913,3.703053 -1.44498,1.44304 c -9.211167,-6.151773 -26.8732,-2.107633 -27.777633,16.699427 c -1.117213,23.172967 31.302413,29.849727 37.38956,5.20892 c 0.32136,-2.599793 2.4369,-2.54046 1.92684,1.149807 c -0.55504,10.01596 -3.686953,19.37738 -7.991793,28.506313 c 7.25556,0 15.36418,0 21.961227,0 c -4.304647,-9.128933 -7.436747,-18.490353 -7.991793,-28.506313 c -0.510067,-3.690267 1.605473,-3.749607 1.92684,-1.149807 c 6.087147,24.640807 38.506767,17.964047 37.38954,-5.20892 c -0.90424,-18.80706 -18.566447,-22.8512 -27.777613,-16.699427 c -3.633893,2.26002 -3.429193,0.909793 -1.44498,-1.44304 c 13.68118,-16.13078 5.39778,-36.902907 -13.074987,-37.303593 c 0,-0.000107 0,0.000087 -0.018873,0 z" />
    <path d="m 239.992667,181.5111 c -18.47296,0.400647 -26.75636,21.172813 -13.07518,37.303593 c 1.984213,2.352853 2.188913,3.703053 -1.44498,1.44304 c -9.211167,-6.151773 -26.8732,-2.107633 -27.777633,16.699427 c -1.117213,23.172967 31.302413,29.849727 37.38956,5.20892 c 0.32136,-2.599793 2.4369,-2.54046 1.92684,1.149807 c -0.55504,10.01596 -3.686953,19.37738 -7.991793,28.506313 c 7.25556,0 15.36418,0 21.961227,0 c -4.304647,-9.128933 -7.436747,-18.490353 -7.991793,-28.506313 c -0.510067,-3.690267 1.605473,-3.749607 1.92684,-1.149807 c 6.087147,24.640807 38.506767,17.964047 37.38954,-5.20892 c -0.90424,-18.80706 -18.566447,-22.8512 -27.777613,-16.699427 c -3.633893,2.26002 -3.429193,0.909793 -1.44498,-1.44304 c 13.68118,-16.13078 5.39778,-36.902907 -13.074987,-37.303593 c 0,-0.000107 0,0.000087 -0.018873,0 z" />
    <path d="m 143.326,274.844433 c -18.47296,0.400647 -26.75636,21.172813 -13.07518,37.303593 c 1.984213,2.352853 2.188913,3.703053 -1.44498,1.44304 c -9.211167,-6.151773 -26.8732,-2.107633 -27.777633,16.699427 c -1.117213,23.172967 31.302413,29.849727 37.38956,5.20892 c 0.32136,-2.599793 2.4369,-2.54046 1.92684,1.149807 c -0.55504,10.01596 -3.686953,19.37738 -7.991793,28.506313 c 7.25556,0 15.36418,0 21.961227,0 c -4.304647,-9.128933 -7.436747,-18.490353 -7.991793,-28.506313 c -0.510067,-3.690267 1.605473,-3.749607 1.92684,-1.149807 c 6.087147,24.640807 38.506767,17.964047 37.38954,-5.20892 c -0.90424,-18.80706 -18.566447,-22.8512 -27.777613,-16.699427 c -3.633893,2.26002 -3.429193,0.909793 -1.44498,-1.44304 c 13.68118,-16.13078 5.39778,-36.902907 -13.074987,-37.303593 c 0,-0.000107 0,0.000087 -0.018873,0 z" />
    <path d="m 336.659333,274.844433 c -18.47296,0.400647 -26.75636,21.172813 -13.07518,37.303593 c 1.984213,2.352853 2.188913,3.703053 -1.44498,1.44304 c -9.211167,-6.151773 -26.8732,-2.107633 -27.777633,16.699427 c -1.117213,23.172967 31.302413,29.849727 37.38956,5.20892 c 0.32136,-2.599793 2.4369,-2.54046 1.92684,1.149807 c -0.55504,10.01596 -3.686953,19.37738 -7.991793,28.506313 c 7.25556,0 15.36418,0 21.961227,0 c -4.304647,-9.128933 -7.436747,-18.490353 -7.991793,-28.506313 c -0.510067,-3.690267 1.605473,-3.749607 1.92684,-1.149807 c 6.087147,24.640807 38.506767,17.964047 37.38954,-5.20892 c -0.90424,-18.80706 -18.566447,-22.8512 -27.777613,-16.699427 c -3.633893,2.26002 -3.429193,0.909793 -1.44498,-1.44304 c 13.68118,-16.13078 5.39778,-36.902907 -13.074987,-37.303593 c 0,-0.000107 0,0.000087 -0.018873,0 z" />
    <path d="m 143.326,551.822233 c -18.47296,-0.400647 -26.75636,-21.172813 -13.07518,-37.303593 c 1.984213,-2.352853 2.188913,-3.703053 -1.44498,-1.44304 c -9.211167,6.151773 -26.8732,2.107633 -27.777633,-16.699427 c -1.117213,-23.172967 31.302413,-29.849727 37.38956,-5.20892 c 0.32136,2.599793 2.4369,2.54046 1.92684,-1.149807 c -0.55504,-10.01596 -3.686953,-19.37738 -7.991793,-28.506313 c 7.25556,0 15.36418,0 21.961227,0 c -4.304647,9.128933 -7.436747,18.490353 -7.991793,28.506313 c -0.510067,3.690267 1.605473,3.749607 1.92684,1.149807 c 6.087147,-24.640807 38.506767,-17.964047 37.38954,5.20892 c -0.90424,18.80706 -18.566447,22.8512 -27.777613,16.699427 c -3.633893,-2.26002 -3.429193,-0.909793 -1.44498,1.44304 c 13.68118,16.13078 5.39778,36.902907 -13.074987,37.303593 c 0,0.000107 0,-0.000087 -0.018873,0 z" />
    <path d="m 336.659333,551.822233 c -18.47296,-0.400647 -26.75636,-21.172813 -13.07518,-37.303593 c 1.984213,-2.352853 2.188913,-3.703053 -1.44498,-1.44304 c -9.211167,6.151773 -26.8732,2.107633 -27.777633,-16.699427 c -1.117213,-23.172967 31.302413,-29.849727 37.38956,-5.20892 c 0.32136,2.599793 2.4369,2.54046 1.92684,-1.149807 c -0.55504,-10.01596 -3.686953,-19.37738 -7.991793,-28.506313 c 7.25556,0 15.36418,0 21.961227,0 c -4.304647,9.128933 -7.436747,18.490353 -7.991793,28.506313 c -0.510067,3.690267 1.605473,3.749607 1.92684,1.149807 c 6.087147,-24.640807 38.506767,-17.964047 37.38954,5.20892 c -0.90424,18.80706 -18.566447,22.8512 -27.777613,16.699427 c -3.633893,-2.26002 -3.429193,-0.909793 -1.44498,1.44304 c 13.68118,16.13078 5.39778,36.902907 -13.074987,37.303593 c 0,0.000107 0,-0.000087 -0.018873,0 z" />
  </g>
</svg>