<?xml version="1.0" encoding="utf-8" standalone="yes"?>
<svg xmlns="http://www.w3.org/2000/svg" width="480px" height="640px" version="1.1">
  <rect width="71" height="95" rx="5" ry="5" x="0.5" y="0.5" style="fill:#ffffff;stroke:#000000;stroke-width:1" transform="matrix(6.66666666667,0,0,6.66666666667,0,0)" />
  <g style="fill:#015aff">
    <path d="m 53.789213,111.037807 c 4.083393,-21.586867 8.430193,-37.792867 19.843107,-55.3812 l -23.198173,0 l 0,7.570933 l -6.15886,0 l 0,-14.272067 l 33.931307,0 l 4.184993,6.701133 c -12.121667,13.232467 -23.2153,56.0068 -21.25102,55.3812 z" />
    <path d="m 426.210787,528.962193 c -4.083393,21.586867 -8.430193,37.792867 -19.843107,55.3812 l 23.198173,0 l 0,-7.570933 l 6.15886,0 l 0,14.272067 l -33.931307,0 l -4.184993,-6.701133 c 12.121667,-13.232467 23.2153,-56.0068 21.25102,-55.3812 z" />
    <path d="m 63.333333,159.395559 c -4.247093,-6.445835 -8.71532,-12.710661 -14.299139,-18.062221 c 5.583819,-5.35156 10.052045,-11.616389 14.299139,-18.062224 c 4.247101,6.445835 8.715328,12.710664 14.299147,18.062224 c -5.583819,5.35156 -10.052045,11.616387 -14.299147,18.062221 z" />
    <path d="m 416.666667,480.604441 c 4.247093,6.445835 8.71532,12.710661 14.299139,18.062221 c -5.583819,5.35156 -10.052045,11.616389 -14.299139,18.062224 c -4.247101,-6.445835 -8.715328,-12.710664 -14.299147,-18.062224 c 5.583819,-5.35156 10.052045,-11.616387 14.299147,-18.062221 z" />
    <path d="m 143.333333,178.488897 c -10.617733,-16.114587 -21.7883,-31.776653 -35.747847,-45.155553 c 13.959547,-13.3789 25.130113,-29.040973 35.747847,-45.15556 c 10.617753,16.114587 21.78832,31.77666 35.747867,45.15556 c -13.959547,13.3789 -25.130113,29.040967 -35.747867,45.155553 z" />
    <path d="m 336.666667,178.488897 c -10.617733,-16.114587 -21.7883,-31.776653 -35.747847,-45.155553 c 13.959547,-13.3789 25.130113,-29.040973 35.747847,-45.15556 c 10.617753,16.114587 21.78832,31.77666 35.747867,45.15556 c -13.959547,13.3789 -25.130113,29.040967 -35.747867,45.155553 z" />
    <path d="m 240,271.82223 c -10.617733,-16.114587 -21.7883,-31.776653 -35.747847,-45.155553 c 13.959547,-13.3789 25.130113,-29.040973 35.747847,-45.15556 c 10.617753,16.114587 21.78832,31.77666 35.747867,45.15556 c -13.959547,13.3789 -25.130113,29.040967 -35.747867,45.155553 z" />
    <path d="m 143.333333,365.155563 c -10.617733,-16.114587 -21.7883,-31.776653 -35.747847,-45.155553 c 13.959547,-13.3789 25.130113,-29.040973 35.747847,-45.15556 c 10.617753,16.114587 21.78832,31.77666 35.747867,45.15556 c -13.959547,13.3789 -25.130113,29.040967 -35.747867,45.155553 z" />
    <path d="m 336.666667,365.155563 c -10.617733,-16.114587 -21.7883,-31.776653 -35.747847,-45.155553 c 13.959547,-13.3789 25.130113,-29.040973 35.747847,-45.15556 c 10.617753,16.114587 21.78832,31.77666 35.747867,45.15556 c -13.959547,13.3789 -25.130113,29.040967 -35.747867,45.155553 z" />
    <path d="m 143.333333,461.511103 c -10.617733,16.114587 -21.7883,31.776653 -35.747847,45.155553 c 13.959547,13.3789 25.130113,29.040973 35.747847,45.15556 c 10.617753,-16.114587 21.78832,-31.77666 35.747867,-45.15556 c -13.959547,-13.3789 -25.130113,-29.040967 -35.747867,-45.155553 z" />
    <path d="m 336.666667,461.511103 c -10.617733,16.114587 -21.7883,31.776653 -35.747847,45.155553 c 13.959547,13.3789 25.130113,29.040973 35.747847,45.15556 c 10.617753,-16.114587 21.78832,-31.77666 35.747867,-45.15556 c -13.959547,-13.3789 -25.130113,-29.040967 -35.747867,-45.155553 z" />
  </g>
</svg>
