<?xml version="1.0" encoding="utf-8" standalone="yes"?>
<svg xmlns="http://www.w3.org/2000/svg" width="480px" height="640px" version="1.1">
  <rect width="71" height="95" rx="5" ry="5" x="0.5" y="0.5" style="fill:#ffffff;stroke:#000000;stroke-width:1" transform="matrix(6.66666666667,0,0,6.66666666667,0,0)" />
  <g style="fill:#000000">
    <path d="m 43.164087,92.85754 c 0.29502,-8.334933 3.30916,-11.4616 9.242993,-15.822533 c -4.734007,-3.414867 -6.7297,-8.448467 -6.3233,-12.732933 c 0.9748,-10.375267 8.986547,-15.5616 17.72888,-15.3398 c 8.74948,0.2316 16.279753,7.167133 16.867533,14.706467 c 0.510447,6.5538 -1.436893,9.717333 -6.08624,13.1642 c 5.51784,4.659133 9.042247,7.7192 8.911667,15.928467 c -0.12982,8.209533 -7.11428,17.9786 -19.286747,18.2768 c -12.172287,0.298 -21.357327,-9.845467 -21.054787,-18.180667 z m 33.97966,0.030133 c 0.520047,-7.546667 -6.15152,-12.6368 -13.681987,-12.710733 c -7.331967,-0.079067 -13.889893,6.179133 -13.889893,12.954733 c 0,7.275533 8.531793,11.230067 14.042293,11.2474 c 6.698287,0.030067 13.077093,-4.994267 13.529587,-11.4914 z m -2.409433,-26.995933 c 0.142993,-6.349267 -5.716147,-10.904933 -11.76362,-10.7226 c -5.377293,0.165533 -11.064467,4.264933 -11.07406,9.576933 c 0,6.649733 6.47326,9.970933 12.000693,10.099067 c 5.016987,0.112933 10.723347,-4.151467 10.836987,-8.9534 z" />
    <path d="m 436.835913,547.14246 c -0.29502,8.334933 -3.30916,11.4616 -9.242993,15.822533 c 4.734007,3.414867 6.7297,8.448467 6.3233,12.732933 c -0.9748,10.375267 -8.986547,15.5616 -17.72888,15.3398 c -8.74948,-0.2316 -16.279753,-7.167133 -16.867533,-14.706467 c -0.510447,-6.5538 1.436893,-9.717333 6.08624,-13.1642 c -5.51784,-4.659133 -9.042247,-7.7192 -8.911667,-15.928467 c 0.12982,-8.209533 7.11428,-17.9786 19.286747,-18.2768 c 12.172287,-0.298 21.357327,9.845467 21.054787,18.180667 z m -33.97966,-0.030133 c -0.520047,7.546667 6.15152,12.6368 13.681987,12.710733 c 7.331967,0.079067 13.889893,-6.179133 13.889893,-12.954733 c 0,-7.275533 -8.531793,-11.230067 -14.042293,-11.2474 c -6.698287,-0.030067 -13.077093,4.994267 -13.529587,11.4914 z m 2.409433,26.995933 c -0.142993,6.349267 5.716147,10.904933 11.76362,10.7226 c 5.377293,-0.165533 11.064467,-4.264933 11.07406,-9.576933 c 0,-6.649733 -6.47326,-9.970933 -12.000693,-10.099067 c -5.016987,-0.112933 -10.723347,4.151467 -10.836987,8.9534 z" />
    <path d="m 63.3304,123.271107 c -7.389184,0.160259 -10.702544,8.469125 -5.230072,14.921437 c 0.793685,0.941141 0.875565,1.481221 -0.577992,0.577216 c -3.684467,-2.460709 -10.74928,-0.843053 -11.111053,6.679771 c -0.446885,9.269187 12.520965,11.939891 14.955824,2.083568 c 0.128544,-1.039917 0.97476,-1.016184 0.770736,0.459923 c -0.222016,4.006384 -1.474781,7.750952 -3.196717,11.402525 c 2.902224,0 6.145672,0 8.784491,0 c -1.721859,-3.651573 -2.974699,-7.396141 -3.196717,-11.402525 c -0.204027,-1.476107 0.642189,-1.499843 0.770736,-0.459923 c 2.434859,9.856323 15.402707,7.185619 14.955816,-2.083568 c -0.361696,-7.522824 -7.426579,-9.14048 -11.111045,-6.679771 c -1.453557,0.904008 -1.371677,0.363917 -0.577992,-0.577216 c 5.472472,-6.452312 2.159112,-14.761163 -5.229995,-14.921437 c 0,-0.000043 0,0.000035 -0.007549,0 z" />
    <path d="m 416.6696,516.728893 c 7.389184,-0.160259 10.702544,-8.469125 5.230072,-14.921437 c -0.793685,-0.941141 -0.875565,-1.481221 0.577992,-0.577216 c 3.684467,2.460709 10.74928,0.843053 11.111053,-6.679771 c 0.446885,-9.269187 -12.520965,-11.939891 -14.955824,-2.083568 c -0.128544,1.039917 -0.97476,1.016184 -0.770736,-0.459923 c 0.222016,-4.006384 1.474781,-7.750952 3.196717,-11.402525 c -2.902224,0 -6.145672,0 -8.784491,0 c 1.721859,3.651573 2.974699,7.396141 3.196717,11.402525 c 0.204027,1.476107 -0.642189,1.499843 -0.770736,0.459923 c -2.434859,-9.856323 -15.402707,-7.185619 -14.955816,2.083568 c 0.361696,7.522824 7.426579,9.14048 11.111045,6.679771 c 1.453557,-0.904008 1.371677,-0.363917 0.577992,0.577216 c -5.472472,6.452312 -2.159112,14.761163 5.229995,14.921437 c 0,0.000043 0,-0.000035 0.007549,0 z" />
    <path d="m 143.326,88.177767 c -18.47296,0.400647 -26.75636,21.172813 -13.07518,37.303593 c 1.984213,2.352853 2.188913,3.703053 -1.44498,1.44304 c -9.211167,-6.151773 -26.8732,-2.107633 -27.777633,16.699427 c -1.117213,23.172967 31.302413,29.849727 37.38956,5.20892 c 0.32136,-2.599793 2.4369,-2.54046 1.92684,1.149807 c -0.55504,10.01596 -3.686953,19.37738 -7.991793,28.506313 c 7.25556,0 15.36418,0 21.961227,0 c -4.304647,-9.128933 -7.436747,-18.490353 -7.991793,-28.506313 c -0.510067,-3.690267 1.605473,-3.749607 1.92684,-1.149807 c 6.087147,24.640807 38.506767,17.964047 37.38954,-5.20892 c -0.90424,-18.80706 -18.566447,-22.8512 -27.777613,-16.699427 c -3.633893,2.26002 -3.429193,0.909793 -1.44498,-1.44304 c 13.68118,-16.13078 5.39778,-36.902907 -13.074987,-37.303593 c 0,-0.000107 0,0.000087 -0.018873,0 z" />
    <path d="m 336.659333,88.177767 c -18.47296,0.400647 -26.75636,21.172813 -13.07518,37.303593 c 1.984213,2.352853 2.188913,3.703053 -1.44498,1.44304 c -9.211167,-6.151773 -26.8732,-2.107633 -27.777633,16.699427 c -1.117213,23.172967 31.302413,29.849727 37.38956,5.20892 c 0.32136,-2.599793 2.4369,-2.54046 1.92684,1.149807 c -0.55504,10.01596 -3.686953,19.37738 -7.991793,28.506313 c 7.25556,0 15.36418,0 21.961227,0 c -4.304647,-9.128933 -7.436747,-18.490353 -7.991793,-28.506313 c -0.510067,-3.690267 1.605473,-3.749607 1.92684,-1.149807 c 6.087147,24.640807 38.506767,17.964047 37.38954,-5.20892 c -0.90424,-18.80706 -18.566447,-22.8512 -27.777613,-16.699427 c -3.633893,2.26002 -3.429193,0.909793 -1.44498,-1.44304 c 13.68118,-16.13078 5.39778,-36.902907 -13.074987,-37.303593 c 0,-0.000107 0,0.000087 -0.018873,0 z" />
    <path d="m 239.992667,181.5111 c -18.47296,0.400647 -26.75636,21.172813 -13.07518,37.303593 c 1.984213,2.352853 2.188913,3.703053 -1.44498,1.44304 c -9.211167,-6.151773 -26.8732,-2.107633 -27.777633,16.699427 c -1.117213,23.172967 31.302413,29.849727 37.38956,5.20892 c 0.32136,-2.599793 2.4369,-2.54046 1.92684,1.149807 c -0.55504,10.01596 -3.686953,19.37738 -7.991793,28.506313 c 7.25556,0 15.36418,0 21.961227,0 c -4.304647,-9.128933 -7.436747,-18.490353 -7.991793,-28.506313 c -0.510067,-3.690267 1.605473,-3.749607 1.92684,-1.149807 c 6.087147,24.640807 38.506767,17.964047 37.38954,-5.20892 c -0.90424,-18.80706 -18.566447,-22.8512 -27.777613,-16.699427 c -3.633893,2.26002 -3.429193,0.909793 -1.44498,-1.44304 c 13.68118,-16.13078 5.39778,-36.902907 -13.074987,-37.303593 c 0,-0.000107 0,0.000087 -0.018873,0 z" />
    <path d="m 143.326,274.844433 c -18.47296,0.400647 -26.75636,21.172813 -13.07518,37.303593 c 1.984213,2.352853 2.188913,3.703053 -1.44498,1.44304 c -9.211167,-6.151773 -26.8732,-2.107633 -27.777633,16.699427 c -1.117213,23.172967 31.302413,29.849727 37.38956,5.20892 c 0.32136,-2.599793 2.4369,-2.54046 1.92684,1.149807 c -0.55504,10.01596 -3.686953,19.37738 -7.991793,28.506313 c 7.25556,0 15.36418,0 21.961227,0 c -4.304647,-9.128933 -7.436747,-18.490353 -7.991793,-28.506313 c -0.510067,-3.690267 1.605473,-3.749607 1.92684,-1.149807 c 6.087147,24.640807 38.506767,17.964047 37.38954,-5.20892 c -0.90424,-18.80706 -18.566447,-22.8512 -27.777613,-16.699427 c -3.633893,2.26002 -3.429193,0.909793 -1.44498,-1.44304 c 13.68118,-16.13078 5.39778,-36.902907 -13.074987,-37.303593 c 0,-0.000107 0,0.000087 -0.018873,0 z" />
    <path d="m 336.659333,274.844433 c -18.47296,0.400647 -26.75636,21.172813 -13.07518,37.303593 c 1.984213,2.352853 2.188913,3.703053 -1.44498,1.44304 c -9.211167,-6.151773 -26.8732,-2.107633 -27.777633,16.699427 c -1.117213,23.172967 31.302413,29.849727 37.38956,5.20892 c 0.32136,-2.599793 2.4369,-2.54046 1.92684,1.149807 c -0.55504,10.01596 -3.686953,19.37738 -7.991793,28.506313 c 7.25556,0 15.36418,0 21.961227,0 c -4.304647,-9.128933 -7.436747,-18.490353 -7.991793,-28.506313 c -0.510067,-3.690267 1.605473,-3.749607 1.92684,-1.149807 c 6.087147,24.640807 38.506767,17.964047 37.38954,-5.20892 c -0.90424,-18.80706 -18.566447,-22.8512 -27.777613,-16.699427 c -3.633893,2.26002 -3.429193,0.909793 -1.44498,-1.44304 c 13.68118,-16.13078 5.39778,-36.902907 -13.074987,-37.303593 c 0,-0.000107 0,0.000087 -0.018873,0 z" />
    <path d="m 239.992667,458.4889 c -18.47296,-0.400647 -26.75636,-21.172813 -13.07518,-37.303593 c 1.984213,-2.352853 2.188913,-3.703053 -1.44498,-1.44304 c -9.211167,6.151773 -26.8732,2.107633 -27.777633,-16.699427 c -1.117213,-23.172967 31.302413,-29.849727 37.38956,-5.20892 c 0.32136,2.599793 2.4369,2.54046 1.92684,-1.149807 c -0.55504,-10.01596 -3.686953,-19.37738 -7.991793,-28.506313 c 7.25556,0 15.36418,0 21.961227,0 c -4.304647,9.128933 -7.436747,18.490353 -7.991793,28.506313 c -0.510067,3.690267 1.605473,3.749607 1.92684,1.149807 c 6.087147,-24.640807 38.506767,-17.964047 37.38954,5.20892 c -0.90424,18.80706 -18.566447,22.8512 -27.777613,16.699427 c -3.633893,-2.26002 -3.429193,-0.909793 -1.44498,1.44304 c 13.68118,16.13078 5.39778,36.902907 -13.074987,37.303593 c 0,0.000107 0,-0.000087 -0.018873,0 z" />
    <path d="m 143.326,551.822233 c -18.47296,-0.400647 -26.75636,-21.172813 -13.07518,-37.303593 c 1.984213,-2.352853 2.188913,-3.703053 -1.44498,-1.44304 c -9.211167,6.151773 -26.8732,2.107633 -27.777633,-16.699427 c -1.117213,-23.172967 31.302413,-29.849727 37.38956,-5.20892 c 0.32136,2.599793 2.4369,2.54046 1.92684,-1.149807 c -0.55504,-10.01596 -3.686953,-19.37738 -7.991793,-28.506313 c 7.25556,0 15.36418,0 21.961227,0 c -4.304647,9.128933 -7.436747,18.490353 -7.991793,28.506313 c -0.510067,3.690267 1.605473,3.749607 1.92684,1.149807 c 6.087147,-24.640807 38.506767,-17.964047 37.38954,5.20892 c -0.90424,18.80706 -18.566447,22.8512 -27.777613,16.699427 c -3.633893,-2.26002 -3.429193,-0.909793 -1.44498,1.44304 c 13.68118,16.13078 5.39778,36.902907 -13.074987,37.303593 c 0,0.000107 0,-0.000087 -0.018873,0 z" />
    <path d="m 336.659333,551.822233 c -18.47296,-0.400647 -26.75636,-21.172813 -13.07518,-37.303593 c 1.984213,-2.352853 2.188913,-3.703053 -1.44498,-1.44304 c -9.211167,6.151773 -26.8732,2.107633 -27.777633,-16.699427 c -1.117213,-23.172967 31.302413,-29.849727 37.38956,-5.20892 c 0.32136,2.599793 2.4369,2.54046 1.92684,-1.149807 c -0.55504,-10.01596 -3.686953,-19.37738 -7.991793,-28.506313 c 7.25556,0 15.36418,0 21.961227,0 c -4.304647,9.128933 -7.436747,18.490353 -7.991793,28.506313 c -0.510067,3.690267 1.605473,3.749607 1.92684,1.149807 c 6.087147,-24.640807 38.506767,-17.964047 37.38954,5.20892 c -0.90424,18.80706 -18.566447,22.8512 -27.777613,16.699427 c -3.633893,-2.26002 -3.429193,-0.909793 -1.44498,1.44304 c 13.68118,16.13078 5.39778,36.902907 -13.074987,37.303593 c 0,0.000107 0,-0.000087 -0.018873,0 z" />
  </g>
</svg>