<?xml version="1.0" encoding="utf-8" standalone="yes"?>
<svg xmlns="http://www.w3.org/2000/svg" width="480px" height="640px" version="1.1">
  <rect width="71" height="95" rx="5" ry="5" x="0.5" y="0.5" style="fill:#ffffff;stroke:#000000;stroke-width:1" transform="matrix(6.66666666667,0,0,6.66666666667,0,0)" />
  <g style="fill:#015aff">
    <path d="m 43.164087,92.85754 c 0.29502,-8.334933 3.30916,-11.4616 9.242993,-15.822533 c -4.734007,-3.414867 -6.7297,-8.448467 -6.3233,-12.732933 c 0.9748,-10.375267 8.986547,-15.5616 17.72888,-15.3398 c 8.74948,0.2316 16.279753,7.167133 16.867533,14.706467 c 0.510447,6.5538 -1.436893,9.717333 -6.08624,13.1642 c 5.51784,4.659133 9.042247,7.7192 8.911667,15.928467 c -0.12982,8.209533 -7.11428,17.9786 -19.286747,18.2768 c -12.172287,0.298 -21.357327,-9.845467 -21.054787,-18.180667 z m 33.97966,0.030133 c 0.520047,-7.546667 -6.15152,-12.6368 -13.681987,-12.710733 c -7.331967,-0.079067 -13.889893,6.179133 -13.889893,12.954733 c 0,7.275533 8.531793,11.230067 14.042293,11.2474 c 6.698287,0.030067 13.077093,-4.994267 13.529587,-11.4914 z m -2.409433,-26.995933 c 0.142993,-6.349267 -5.716147,-10.904933 -11.76362,-10.7226 c -5.377293,0.165533 -11.064467,4.264933 -11.07406,9.576933 c 0,6.649733 6.47326,9.970933 12.000693,10.099067 c 5.016987,0.112933 10.723347,-4.151467 10.836987,-8.9534 z" />
    <path d="m 436.835913,547.14246 c -0.29502,8.334933 -3.30916,11.4616 -9.242993,15.822533 c 4.734007,3.414867 6.7297,8.448467 6.3233,12.732933 c -0.9748,10.375267 -8.986547,15.5616 -17.72888,15.3398 c -8.74948,-0.2316 -16.279753,-7.167133 -16.867533,-14.706467 c -0.510447,-6.5538 1.436893,-9.717333 6.08624,-13.1642 c -5.51784,-4.659133 -9.042247,-7.7192 -8.911667,-15.928467 c 0.12982,-8.209533 7.11428,-17.9786 19.286747,-18.2768 c 12.172287,-0.298 21.357327,9.845467 21.054787,18.180667 z m -33.97966,-0.030133 c -0.520047,7.546667 6.15152,12.6368 13.681987,12.710733 c 7.331967,0.079067 13.889893,-6.179133 13.889893,-12.954733 c 0,-7.275533 -8.531793,-11.230067 -14.042293,-11.2474 c -6.698287,-0.030067 -13.077093,4.994267 -13.529587,11.4914 z m 2.409433,26.995933 c -0.142993,6.349267 5.716147,10.904933 11.76362,10.7226 c 5.377293,-0.165533 11.064467,-4.264933 11.07406,-9.576933 c 0,-6.649733 -6.47326,-9.970933 -12.000693,-10.099067 c -5.016987,-0.112933 -10.723347,4.151467 -10.836987,8.9534 z" />
    <path d="m 63.333333,159.395559 c -4.247093,-6.445835 -8.71532,-12.710661 -14.299139,-18.062221 c 5.583819,-5.35156 10.052045,-11.616389 14.299139,-18.062224 c 4.247101,6.445835 8.715328,12.710664 14.299147,18.062224 c -5.583819,5.35156 -10.052045,11.616387 -14.299147,18.062221 z" />
    <path d="m 416.666667,480.604441 c 4.247093,6.445835 8.71532,12.710661 14.299139,18.062221 c -5.583819,5.35156 -10.052045,11.616389 -14.299139,18.062224 c -4.247101,-6.445835 -8.715328,-12.710664 -14.299147,-18.062224 c 5.583819,-5.35156 10.052045,-11.616387 14.299147,-18.062221 z" />
    <path d="m 143.333333,178.488897 c -10.617733,-16.114587 -21.7883,-31.776653 -35.747847,-45.155553 c 13.959547,-13.3789 25.130113,-29.040973 35.747847,-45.15556 c 10.617753,16.114587 21.78832,31.77666 35.747867,45.15556 c -13.959547,13.3789 -25.130113,29.040967 -35.747867,45.155553 z" />
    <path d="m 336.666667,178.488897 c -10.617733,-16.114587 -21.7883,-31.776653 -35.747847,-45.155553 c 13.959547,-13.3789 25.130113,-29.040973 35.747847,-45.15556 c 10.617753,16.114587 21.78832,31.77666 35.747867,45.15556 c -13.959547,13.3789 -25.130113,29.040967 -35.747867,45.155553 z" />
    <path d="m 240,271.82223 c -10.617733,-16.114587 -21.7883,-31.776653 -35.747847,-45.155553 c 13.959547,-13.3789 25.130113,-29.040973 35.747847,-45.15556 c 10.617753,16.114587 21.78832,31.77666 35.747867,45.15556 c -13.959547,13.3789 -25.130113,29.040967 -35.747867,45.155553 z" />
    <path d="m 143.333333,365.155563 c -10.617733,-16.114587 -21.7883,-31.776653 -35.747847,-45.155553 c 13.959547,-13.3789 25.130113,-29.040973 35.747847,-45.15556 c 10.617753,16.114587 21.78832,31.77666 35.747867,45.15556 c -13.959547,13.3789 -25.130113,29.040967 -35.747867,45.155553 z" />
    <path d="m 336.666667,365.155563 c -10.617733,-16.114587 -21.7883,-31.776653 -35.747847,-45.155553 c 13.959547,-13.3789 25.130113,-29.040973 35.747847,-45.15556 c 10.617753,16.114587 21.78832,31.77666 35.747867,45.15556 c -13.959547,13.3789 -25.130113,29.040967 -35.747867,45.155553 z" />
    <path d="m 240,368.17777 c -10.617733,16.114587 -21.7883,31.776653 -35.747847,45.155553 c 13.959547,13.3789 25.130113,29.040973 35.747847,45.15556 c 10.617753,-16.114587 21.78832,-31.77666 35.747867,-45.15556 c -13.959547,-13.3789 -25.130113,-29.040967 -35.747867,-45.155553 z" />
    <path d="m 143.333333,461.511103 c -10.617733,16.114587 -21.7883,31.776653 -35.747847,45.155553 c 13.959547,13.3789 25.130113,29.040973 35.747847,45.15556 c 10.617753,-16.114587 21.78832,-31.77666 35.747867,-45.15556 c -13.959547,-13.3789 -25.130113,-29.040967 -35.747867,-45.155553 z" />
    <path d="m 336.666667,461.511103 c -10.617733,16.114587 -21.7883,31.776653 -35.747847,45.155553 c 13.959547,13.3789 25.130113,29.040973 35.747847,45.15556 c 10.617753,-16.114587 21.78832,-31.77666 35.747867,-45.15556 c -13.959547,-13.3789 -25.130113,-29.040967 -35.747867,-45.155553 z" />
  </g>
</svg>
