<?xml version="1.0" encoding="utf-8" standalone="yes"?>
<svg xmlns="http://www.w3.org/2000/svg" width="480px" height="640px" version="1.1">
  <rect width="71" height="95" rx="5" ry="5" x="0.5" y="0.5" style="fill:#ffffff;stroke:#000000;stroke-width:1" transform="matrix(6.66666666667,0,0,6.66666666667,0,0)" />
  <g style="fill:#c8102e">
    <path d="m 43.164087,92.85754 c 0.29502,-8.334933 3.30916,-11.4616 9.242993,-15.822533 c -4.734007,-3.414867 -6.7297,-8.448467 -6.3233,-12.732933 c 0.9748,-10.375267 8.986547,-15.5616 17.72888,-15.3398 c 8.74948,0.2316 16.279753,7.167133 16.867533,14.706467 c 0.510447,6.5538 -1.436893,9.717333 -6.08624,13.1642 c 5.51784,4.659133 9.042247,7.7192 8.911667,15.928467 c -0.12982,8.209533 -7.11428,17.9786 -19.286747,18.2768 c -12.172287,0.298 -21.357327,-9.845467 -21.054787,-18.180667 z m 33.97966,0.030133 c 0.520047,-7.546667 -6.15152,-12.6368 -13.681987,-12.710733 c -7.331967,-0.079067 -13.889893,6.179133 -13.889893,12.954733 c 0,7.275533 8.531793,11.230067 14.042293,11.2474 c 6.698287,0.030067 13.077093,-4.994267 13.529587,-11.4914 z m -2.409433,-26.995933 c 0.142993,-6.349267 -5.716147,-10.904933 -11.76362,-10.7226 c -5.377293,0.165533 -11.064467,4.264933 -11.07406,9.576933 c 0,6.649733 6.47326,9.970933 12.000693,10.099067 c 5.016987,0.112933 10.723347,-4.151467 10.836987,-8.9534 z" />
    <path d="m 436.835913,547.14246 c -0.29502,8.334933 -3.30916,11.4616 -9.242993,15.822533 c 4.734007,3.414867 6.7297,8.448467 6.3233,12.732933 c -0.9748,10.375267 -8.986547,15.5616 -17.72888,15.3398 c -8.74948,-0.2316 -16.279753,-7.167133 -16.867533,-14.706467 c -0.510447,-6.5538 1.436893,-9.717333 6.08624,-13.1642 c -5.51784,-4.659133 -9.042247,-7.7192 -8.911667,-15.928467 c 0.12982,-8.209533 7.11428,-17.9786 19.286747,-18.2768 c 12.172287,-0.298 21.357327,9.845467 21.054787,18.180667 z m -33.97966,-0.030133 c -0.520047,7.546667 6.15152,12.6368 13.681987,12.710733 c 7.331967,0.079067 13.889893,-6.179133 13.889893,-12.954733 c 0,-7.275533 -8.531793,-11.230067 -14.042293,-11.2474 c -6.698287,-0.030067 -13.077093,4.994267 -13.529587,11.4914 z m 2.409433,26.995933 c -0.142993,6.349267 5.716147,10.904933 11.76362,10.7226 c 5.377293,-0.165533 11.064467,-4.264933 11.07406,-9.576933 c 0,-6.649733 -6.47326,-9.970933 -12.000693,-10.099067 c -5.016987,-0.112933 -10.723347,4.151467 -10.836987,8.9534 z" />
    <path d="m 63.333333,159.395559 l -9.785363,-12.535379 c -3.759373,-4.533061 -6.764909,-9.441517 -7.044344,-13.669405 c -0.320496,-4.829621 2.713248,-9.674869 8.205635,-9.909699 c 5.489083,-0.234696 7.717123,3.723851 8.624072,6.987528 c 0.907032,-3.263685 3.135072,-7.222224 8.624155,-6.987528 c 5.492389,0.234829 8.526139,5.080077 8.205635,9.909699 c -0.279427,4.227885 -3.284963,9.136344 -7.044344,13.669405 z" />
    <path d="m 416.666667,480.604441 l 9.785363,12.535379 c 3.759373,4.533061 6.764909,9.441517 7.044344,13.669405 c 0.320496,4.829621 -2.713248,9.674869 -8.205635,9.909699 c -5.489083,0.234696 -7.717123,-3.723851 -8.624072,-6.987528 c -0.907032,3.263685 -3.135072,7.222224 -8.624155,6.987528 c -5.492389,-0.234829 -8.526139,-5.080077 -8.205635,-9.909699 c 0.279427,-4.227885 3.284963,-9.136344 7.044344,-13.669405 z" />
    <path d="m 143.333333,178.488897 l -24.463407,-31.338447 c -9.398433,-11.332653 -16.912273,-23.603793 -17.61086,-34.173513 c -0.80124,-12.074053 6.78312,-24.187173 20.514087,-24.774247 c 13.722707,-0.58674 19.292807,9.309627 21.56018,17.46882 c 2.26758,-8.159213 7.83768,-18.05556 21.560387,-17.46882 c 13.730973,0.587073 21.315347,12.700193 20.514087,24.774247 c -0.698567,10.569713 -8.212407,22.84086 -17.61086,34.173513 z" />
    <path d="m 336.666667,178.488897 l -24.463407,-31.338447 c -9.398433,-11.332653 -16.912273,-23.603793 -17.61086,-34.173513 c -0.80124,-12.074053 6.78312,-24.187173 20.514087,-24.774247 c 13.722707,-0.58674 19.292807,9.309627 21.56018,17.46882 c 2.26758,-8.159213 7.83768,-18.05556 21.560387,-17.46882 c 13.730973,0.587073 21.315347,12.700193 20.514087,24.774247 c -0.698567,10.569713 -8.212407,22.84086 -17.61086,34.173513 z" />
    <path d="m 240,271.82223 l -24.463407,-31.338447 c -9.398433,-11.332653 -16.912273,-23.603793 -17.61086,-34.173513 c -0.80124,-12.074053 6.78312,-24.187173 20.514087,-24.774247 c 13.722707,-0.58674 19.292807,9.309627 21.56018,17.46882 c 2.26758,-8.159213 7.83768,-18.05556 21.560387,-17.46882 c 13.730973,0.587073 21.315347,12.700193 20.514087,24.774247 c -0.698567,10.569713 -8.212407,22.84086 -17.61086,34.173513 z" />
    <path d="m 143.333333,365.155563 l -24.463407,-31.338447 c -9.398433,-11.332653 -16.912273,-23.603793 -17.61086,-34.173513 c -0.80124,-12.074053 6.78312,-24.187173 20.514087,-24.774247 c 13.722707,-0.58674 19.292807,9.309627 21.56018,17.46882 c 2.26758,-8.159213 7.83768,-18.05556 21.560387,-17.46882 c 13.730973,0.587073 21.315347,12.700193 20.514087,24.774247 c -0.698567,10.569713 -8.212407,22.84086 -17.61086,34.173513 z" />
    <path d="m 336.666667,365.155563 l -24.463407,-31.338447 c -9.398433,-11.332653 -16.912273,-23.603793 -17.61086,-34.173513 c -0.80124,-12.074053 6.78312,-24.187173 20.514087,-24.774247 c 13.722707,-0.58674 19.292807,9.309627 21.56018,17.46882 c 2.26758,-8.159213 7.83768,-18.05556 21.560387,-17.46882 c 13.730973,0.587073 21.315347,12.700193 20.514087,24.774247 c -0.698567,10.569713 -8.212407,22.84086 -17.61086,34.173513 z" />
    <path d="m 240,368.17777 l -24.463407,31.338447 c -9.398433,11.332653 -16.912273,23.603793 -17.61086,34.173513 c -0.80124,12.074053 6.78312,24.187173 20.514087,24.774247 c 13.722707,0.58674 19.292807,-9.309627 21.56018,-17.46882 c 2.26758,8.159213 7.83768,18.05556 21.560387,17.46882 c 13.730973,-0.587073 21.315347,-12.700193 20.514087,-24.774247 c -0.698567,-10.569713 -8.212407,-22.84086 -17.61086,-34.173513 z" />
    <path d="m 143.333333,461.511103 l -24.463407,31.338447 c -9.398433,11.332653 -16.912273,23.603793 -17.61086,34.173513 c -0.80124,12.074053 6.78312,24.187173 20.514087,24.774247 c 13.722707,0.58674 19.292807,-9.309627 21.56018,-17.46882 c 2.26758,8.159213 7.83768,18.05556 21.560387,17.46882 c 13.730973,-0.587073 21.315347,-12.700193 20.514087,-24.774247 c -0.698567,-10.569713 -8.212407,-22.84086 -17.61086,-34.173513 z" />
    <path d="m 336.666667,461.511103 l -24.463407,31.338447 c -9.398433,11.332653 -16.912273,23.603793 -17.61086,34.173513 c -0.80124,12.074053 6.78312,24.187173 20.514087,24.774247 c 13.722707,0.58674 19.292807,-9.309627 21.56018,-17.46882 c 2.26758,8.159213 7.83768,18.05556 21.560387,17.46882 c 13.730973,-0.587073 21.315347,-12.700193 20.514087,-24.774247 c -0.698567,-10.569713 -8.212407,-22.84086 -17.61086,-34.173513 z" />
  </g>
</svg>