<?xml version="1.0" encoding="utf-8" standalone="yes"?>
<svg xmlns="http://www.w3.org/2000/svg" width="480px" height="640px" version="1.1">
  <rect width="71" height="95" rx="5" ry="5" x="0.5" y="0.5" style="fill:#ffffff;stroke:#000000;stroke-width:1" transform="matrix(6.66666666667,0,0,6.66666666667,0,0)" />
  <g style="fill:#000000">
    <path d="m 45.9891,99.07554 l 5.679833,-1.800733 c 2.145647,5.725333 6.47326,7.4204 11.05468,7.053333 c 8.220027,-0.655333 10.95082,-9.844733 11.5655,-17.967267 c -3.202853,3.3974 -8.014193,5.121733 -12.11452,4.947 c -13.106253,-0.7022 -16.46132,-11.192267 -16.5823,-22.1726 c -0.358047,-9.2584 3.4689,-15.9644 10.03416,-19.043867 c 3.478493,-1.559533 11.4417,-1.559533 14.93976,0.288267 c 8.031133,4.237267 11.00896,11.556867 10.469353,29.0338 c 0,14.377533 -3.0529,31.123 -18.464353,31.4876 c -8.89944,1.2318 -15.665453,-5.696 -16.5823,-11.825533 z m 22.310673,-15.7548 c 2.673033,-1.6926 4.17766,-3.281467 5.37748,-5.658933 c 0.98214,-1.953733 1.323253,-2.973733 1.040087,-7.014 c -0.728327,-10.423667 -6.190093,-16.341133 -14.117367,-15.168533 c -4.42206,0.665267 -6.8409,3.138667 -8.229433,7.738333 c -2.561833,8.506933 0.689373,18.4574 6.7758,20.748667 c 2.738127,1.039533 6.971473,0.741533 9.153247,-0.645533 z" />
    <path d="m 434.0109,540.92446 l -5.679833,1.800733 c -2.145647,-5.725333 -6.47326,-7.4204 -11.05468,-7.053333 c -8.220027,0.655333 -10.95082,9.844733 -11.5655,17.967267 c 3.202853,-3.3974 8.014193,-5.121733 12.11452,-4.947 c 13.106253,0.7022 16.46132,11.192267 16.5823,22.1726 c 0.358047,9.2584 -3.4689,15.9644 -10.03416,19.043867 c -3.478493,1.559533 -11.4417,1.559533 -14.93976,-0.288267 c -8.031133,-4.237267 -11.00896,-11.556867 -10.469353,-29.0338 c 0,-14.377533 3.0529,-31.123 18.464353,-31.4876 c 8.89944,-1.2318 15.665453,5.696 16.5823,11.825533 z m -22.310673,15.7548 c -2.673033,1.6926 -4.17766,3.281467 -5.37748,5.658933 c -0.98214,1.953733 -1.323253,2.973733 -1.040087,7.014 c 0.728327,10.423667 6.190093,16.341133 14.117367,15.168533 c 4.42206,-0.665267 6.8409,-3.138667 8.229433,-7.738333 c 2.561833,-8.506933 -0.689373,-18.4574 -6.7758,-20.748667 c -2.738127,-1.039533 -6.971473,-0.741533 -9.153247,0.645533 z" />
    <path d="m 63.3304,123.271107 c -7.389184,0.160259 -10.702544,8.469125 -5.230072,14.921437 c 0.793685,0.941141 0.875565,1.481221 -0.577992,0.577216 c -3.684467,-2.460709 -10.74928,-0.843053 -11.111053,6.679771 c -0.446885,9.269187 12.520965,11.939891 14.955824,2.083568 c 0.128544,-1.039917 0.97476,-1.016184 0.770736,0.459923 c -0.222016,4.006384 -1.474781,7.750952 -3.196717,11.402525 c 2.902224,0 6.145672,0 8.784491,0 c -1.721859,-3.651573 -2.974699,-7.396141 -3.196717,-11.402525 c -0.204027,-1.476107 0.642189,-1.499843 0.770736,-0.459923 c 2.434859,9.856323 15.402707,7.185619 14.955816,-2.083568 c -0.361696,-7.522824 -7.426579,-9.14048 -11.111045,-6.679771 c -1.453557,0.904008 -1.371677,0.363917 -0.577992,-0.577216 c 5.472472,-6.452312 2.159112,-14.761163 -5.229995,-14.921437 c 0,-0.000043 0,0.000035 -0.007549,0 z" />
    <path d="m 416.6696,516.728893 c 7.389184,-0.160259 10.702544,-8.469125 5.230072,-14.921437 c -0.793685,-0.941141 -0.875565,-1.481221 0.577992,-0.577216 c 3.684467,2.460709 10.74928,0.843053 11.111053,-6.679771 c 0.446885,-9.269187 -12.520965,-11.939891 -14.955824,-2.083568 c -0.128544,1.039917 -0.97476,1.016184 -0.770736,-0.459923 c 0.222016,-4.006384 1.474781,-7.750952 3.196717,-11.402525 c -2.902224,0 -6.145672,0 -8.784491,0 c 1.721859,3.651573 2.974699,7.396141 3.196717,11.402525 c 0.204027,1.476107 -0.642189,1.499843 -0.770736,0.459923 c -2.434859,-9.856323 -15.402707,-7.185619 -14.955816,2.083568 c 0.361696,7.522824 7.426579,9.14048 11.111045,6.679771 c 1.453557,-0.904008 1.371677,-0.363917 0.577992,0.577216 c -5.472472,6.452312 -2.159112,14.761163 5.229995,14.921437 c 0,0.000043 0,-0.000035 0.007549,0 z" />
    <path d="m 143.326,88.177767 c -18.47296,0.400647 -26.75636,21.172813 -13.07518,37.303593 c 1.984213,2.352853 2.188913,3.703053 -1.44498,1.44304 c -9.211167,-6.151773 -26.8732,-2.107633 -27.777633,16.699427 c -1.117213,23.172967 31.302413,29.849727 37.38956,5.20892 c 0.32136,-2.599793 2.4369,-2.54046 1.92684,1.149807 c -0.55504,10.01596 -3.686953,19.37738 -7.991793,28.506313 c 7.25556,0 15.36418,0 21.961227,0 c -4.304647,-9.128933 -7.436747,-18.490353 -7.991793,-28.506313 c -0.510067,-3.690267 1.605473,-3.749607 1.92684,-1.149807 c 6.087147,24.640807 38.506767,17.964047 37.38954,-5.20892 c -0.90424,-18.80706 -18.566447,-22.8512 -27.777613,-16.699427 c -3.633893,2.26002 -3.429193,0.909793 -1.44498,-1.44304 c 13.68118,-16.13078 5.39778,-36.902907 -13.074987,-37.303593 c 0,-0.000107 0,0.000087 -0.018873,0 z" />
    <path d="m 336.659333,88.177767 c -18.47296,0.400647 -26.75636,21.172813 -13.07518,37.303593 c 1.984213,2.352853 2.188913,3.703053 -1.44498,1.44304 c -9.211167,-6.151773 -26.8732,-2.107633 -27.777633,16.699427 c -1.117213,23.172967 31.302413,29.849727 37.38956,5.20892 c 0.32136,-2.599793 2.4369,-2.54046 1.92684,1.149807 c -0.55504,10.01596 -3.686953,19.37738 -7.991793,28.506313 c 7.25556,0 15.36418,0 21.961227,0 c -4.304647,-9.128933 -7.436747,-18.490353 -7.991793,-28.506313 c -0.510067,-3.690267 1.605473,-3.749607 1.92684,-1.149807 c 6.087147,24.640807 38.506767,17.964047 37.38954,-5.20892 c -0.90424,-18.80706 -18.566447,-22.8512 -27.777613,-16.699427 c -3.633893,2.26002 -3.429193,0.909793 -1.44498,-1.44304 c 13.68118,-16.13078 5.39778,-36.902907 -13.074987,-37.303593 c 0,-0.000107 0,0.000087 -0.018873,0 z" />
    <path d="m 143.326,212.622211 c -18.47296,0.400647 -26.75636,21.172813 -13.07518,37.303593 c 1.984213,2.352853 2.188913,3.703053 -1.44498,1.44304 c -9.211167,-6.151773 -26.8732,-2.107633 -27.777633,16.699427 c -1.117213,23.172967 31.302413,29.849727 37.38956,5.20892 c 0.32136,-2.599793 2.4369,-2.54046 1.92684,1.149807 c -0.55504,10.01596 -3.686953,19.37738 -7.991793,28.506313 c 7.25556,0 15.36418,0 21.961227,0 c -4.304647,-9.128933 -7.436747,-18.490353 -7.991793,-28.506313 c -0.510067,-3.690267 1.605473,-3.749607 1.92684,-1.149807 c 6.087147,24.640807 38.506767,17.964047 37.38954,-5.20892 c -0.90424,-18.80706 -18.566447,-22.8512 -27.777613,-16.699427 c -3.633893,2.26002 -3.429193,0.909793 -1.44498,-1.44304 c 13.68118,-16.13078 5.39778,-36.902907 -13.074987,-37.303593 c 0,-0.000107 0,0.000087 -0.018873,0 z" />
    <path d="m 336.659333,212.622211 c -18.47296,0.400647 -26.75636,21.172813 -13.07518,37.303593 c 1.984213,2.352853 2.188913,3.703053 -1.44498,1.44304 c -9.211167,-6.151773 -26.8732,-2.107633 -27.777633,16.699427 c -1.117213,23.172967 31.302413,29.849727 37.38956,5.20892 c 0.32136,-2.599793 2.4369,-2.54046 1.92684,1.149807 c -0.55504,10.01596 -3.686953,19.37738 -7.991793,28.506313 c 7.25556,0 15.36418,0 21.961227,0 c -4.304647,-9.128933 -7.436747,-18.490353 -7.991793,-28.506313 c -0.510067,-3.690267 1.605473,-3.749607 1.92684,-1.149807 c 6.087147,24.640807 38.506767,17.964047 37.38954,-5.20892 c -0.90424,-18.80706 -18.566447,-22.8512 -27.777613,-16.699427 c -3.633893,2.26002 -3.429193,0.909793 -1.44498,-1.44304 c 13.68118,-16.13078 5.39778,-36.902907 -13.074987,-37.303593 c 0,-0.000107 0,0.000087 -0.018873,0 z" />
    <path d="m 239.992667,274.844433 c -18.47296,0.400647 -26.75636,21.172813 -13.07518,37.303593 c 1.984213,2.352853 2.188913,3.703053 -1.44498,1.44304 c -9.211167,-6.151773 -26.8732,-2.107633 -27.777633,16.699427 c -1.117213,23.172967 31.302413,29.849727 37.38956,5.20892 c 0.32136,-2.599793 2.4369,-2.54046 1.92684,1.149807 c -0.55504,10.01596 -3.686953,19.37738 -7.991793,28.506313 c 7.25556,0 15.36418,0 21.961227,0 c -4.304647,-9.128933 -7.436747,-18.490353 -7.991793,-28.506313 c -0.510067,-3.690267 1.605473,-3.749607 1.92684,-1.149807 c 6.087147,24.640807 38.506767,17.964047 37.38954,-5.20892 c -0.90424,-18.80706 -18.566447,-22.8512 -27.777613,-16.699427 c -3.633893,2.26002 -3.429193,0.909793 -1.44498,-1.44304 c 13.68118,-16.13078 5.39778,-36.902907 -13.074987,-37.303593 c 0,-0.000107 0,0.000087 -0.018873,0 z" />
    <path d="m 143.326,427.377789 c -18.47296,-0.400647 -26.75636,-21.172813 -13.07518,-37.303593 c 1.984213,-2.352853 2.188913,-3.703053 -1.44498,-1.44304 c -9.211167,6.151773 -26.8732,2.107633 -27.777633,-16.699427 c -1.117213,-23.172967 31.302413,-29.849727 37.38956,-5.20892 c 0.32136,2.599793 2.4369,2.54046 1.92684,-1.149807 c -0.55504,-10.01596 -3.686953,-19.37738 -7.991793,-28.506313 c 7.25556,0 15.36418,0 21.961227,0 c -4.304647,9.128933 -7.436747,18.490353 -7.991793,28.506313 c -0.510067,3.690267 1.605473,3.749607 1.92684,1.149807 c 6.087147,-24.640807 38.506767,-17.964047 37.38954,5.20892 c -0.90424,18.80706 -18.566447,22.8512 -27.777613,16.699427 c -3.633893,-2.26002 -3.429193,-0.909793 -1.44498,1.44304 c 13.68118,16.13078 5.39778,36.902907 -13.074987,37.303593 c 0,0.000107 0,-0.000087 -0.018873,0 z" />
    <path d="m 336.659333,427.377789 c -18.47296,-0.400647 -26.75636,-21.172813 -13.07518,-37.303593 c 1.984213,-2.352853 2.188913,-3.703053 -1.44498,-1.44304 c -9.211167,6.151773 -26.8732,2.107633 -27.777633,-16.699427 c -1.117213,-23.172967 31.302413,-29.849727 37.38956,-5.20892 c 0.32136,2.599793 2.4369,2.54046 1.92684,-1.149807 c -0.55504,-10.01596 -3.686953,-19.37738 -7.991793,-28.506313 c 7.25556,0 15.36418,0 21.961227,0 c -4.304647,9.128933 -7.436747,18.490353 -7.991793,28.506313 c -0.510067,3.690267 1.605473,3.749607 1.92684,1.149807 c 6.087147,-24.640807 38.506767,-17.964047 37.38954,5.20892 c -0.90424,18.80706 -18.566447,22.8512 -27.777613,16.699427 c -3.633893,-2.26002 -3.429193,-0.909793 -1.44498,1.44304 c 13.68118,16.13078 5.39778,36.902907 -13.074987,37.303593 c 0,0.000107 0,-0.000087 -0.018873,0 z" />
    <path d="m 143.326,551.822233 c -18.47296,-0.400647 -26.75636,-21.172813 -13.07518,-37.303593 c 1.984213,-2.352853 2.188913,-3.703053 -1.44498,-1.44304 c -9.211167,6.151773 -26.8732,2.107633 -27.777633,-16.699427 c -1.117213,-23.172967 31.302413,-29.849727 37.38956,-5.20892 c 0.32136,2.599793 2.4369,2.54046 1.92684,-1.149807 c -0.55504,-10.01596 -3.686953,-19.37738 -7.991793,-28.506313 c 7.25556,0 15.36418,0 21.961227,0 c -4.304647,9.128933 -7.436747,18.490353 -7.991793,28.506313 c -0.510067,3.690267 1.605473,3.749607 1.92684,1.149807 c 6.087147,-24.640807 38.506767,-17.964047 37.38954,5.20892 c -0.90424,18.80706 -18.566447,22.8512 -27.777613,16.699427 c -3.633893,-2.26002 -3.429193,-0.909793 -1.44498,1.44304 c 13.68118,16.13078 5.39778,36.902907 -13.074987,37.303593 c 0,0.000107 0,-0.000087 -0.018873,0 z" />
    <path d="m 336.659333,551.822233 c -18.47296,-0.400647 -26.75636,-21.172813 -13.07518,-37.303593 c 1.984213,-2.352853 2.188913,-3.703053 -1.44498,-1.44304 c -9.211167,6.151773 -26.8732,2.107633 -27.777633,-16.699427 c -1.117213,-23.172967 31.302413,-29.849727 37.38956,-5.20892 c 0.32136,2.599793 2.4369,2.54046 1.92684,-1.149807 c -0.55504,-10.01596 -3.686953,-19.37738 -7.991793,-28.506313 c 7.25556,0 15.36418,0 21.961227,0 c -4.304647,9.128933 -7.436747,18.490353 -7.991793,28.506313 c -0.510067,3.690267 1.605473,3.749607 1.92684,1.149807 c 6.087147,-24.640807 38.506767,-17.964047 37.38954,5.20892 c -0.90424,18.80706 -18.566447,22.8512 -27.777613,16.699427 c -3.633893,-2.26002 -3.429193,-0.909793 -1.44498,1.44304 c 13.68118,16.13078 5.39778,36.902907 -13.074987,37.303593 c 0,0.000107 0,-0.000087 -0.018873,0 z" />
  </g>
</svg>