<?xml version="1.0" encoding="utf-8" standalone="yes"?>
<svg xmlns="http://www.w3.org/2000/svg" width="480px" height="640px" version="1.1">
  <rect width="71" height="95" rx="5" ry="5" x="0.5" y="0.5" style="fill:#ffffff;stroke:#000000;stroke-width:1" transform="matrix(6.66666666667,0,0,6.66666666667,0,0)" />
  <g style="fill:#015aff">
    <path d="m 45.9891,99.07554 l 5.679833,-1.800733 c 2.145647,5.725333 6.47326,7.4204 11.05468,7.053333 c 8.220027,-0.655333 10.95082,-9.844733 11.5655,-17.967267 c -3.202853,3.3974 -8.014193,5.121733 -12.11452,4.947 c -13.106253,-0.7022 -16.46132,-11.192267 -16.5823,-22.1726 c -0.358047,-9.2584 3.4689,-15.9644 10.03416,-19.043867 c 3.478493,-1.559533 11.4417,-1.559533 14.93976,0.288267 c 8.031133,4.237267 11.00896,11.556867 10.469353,29.0338 c 0,14.377533 -3.0529,31.123 -18.464353,31.4876 c -8.89944,1.2318 -15.665453,-5.696 -16.5823,-11.825533 z m 22.310673,-15.7548 c 2.673033,-1.6926 4.17766,-3.281467 5.37748,-5.658933 c 0.98214,-1.953733 1.323253,-2.973733 1.040087,-7.014 c -0.728327,-10.423667 -6.190093,-16.341133 -14.117367,-15.168533 c -4.42206,0.665267 -6.8409,3.138667 -8.229433,7.738333 c -2.561833,8.506933 0.689373,18.4574 6.7758,20.748667 c 2.738127,1.039533 6.971473,0.741533 9.153247,-0.645533 z" />
    <path d="m 434.0109,540.92446 l -5.679833,1.800733 c -2.145647,-5.725333 -6.47326,-7.4204 -11.05468,-7.053333 c -8.220027,0.655333 -10.95082,9.844733 -11.5655,17.967267 c 3.202853,-3.3974 8.014193,-5.121733 12.11452,-4.947 c 13.106253,0.7022 16.46132,11.192267 16.5823,22.1726 c 0.358047,9.2584 -3.4689,15.9644 -10.03416,19.043867 c -3.478493,1.559533 -11.4417,1.559533 -14.93976,-0.288267 c -8.031133,-4.237267 -11.00896,-11.556867 -10.469353,-29.0338 c 0,-14.377533 3.0529,-31.123 18.464353,-31.4876 c 8.89944,-1.2318 15.665453,5.696 16.5823,11.825533 z m -22.310673,15.7548 c -2.673033,1.6926 -4.17766,3.281467 -5.37748,5.658933 c -0.98214,1.953733 -1.323253,2.973733 -1.040087,7.014 c 0.728327,10.423667 6.190093,16.341133 14.117367,15.168533 c 4.42206,-0.665267 6.8409,-3.138667 8.229433,-7.738333 c 2.561833,-8.506933 -0.689373,-18.4574 -6.7758,-20.748667 c -2.738127,-1.039533 -6.971473,-0.741533 -9.153247,0.645533 z" />
    <path d="m 63.333333,159.395559 c -4.247093,-6.445835 -8.71532,-12.710661 -14.299139,-18.062221 c 5.583819,-5.35156 10.052045,-11.616389 14.299139,-18.062224 c 4.247101,6.445835 8.715328,12.710664 14.299147,18.062224 c -5.583819,5.35156 -10.052045,11.616387 -14.299147,18.062221 z" />
    <path d="m 416.666667,480.604441 c 4.247093,6.445835 8.71532,12.710661 14.299139,18.062221 c -5.583819,5.35156 -10.052045,11.616389 -14.299139,18.062224 c -4.247101,-6.445835 -8.715328,-12.710664 -14.299147,-18.062224 c 5.583819,-5.35156 10.052045,-11.616387 14.299147,-18.062221 z" />
    <path d="m 143.333333,178.488897 c -10.617733,-16.114587 -21.7883,-31.776653 -35.747847,-45.155553 c 13.959547,-13.3789 25.130113,-29.040973 35.747847,-45.15556 c 10.617753,16.114587 21.78832,31.77666 35.747867,45.15556 c -13.959547,13.3789 -25.130113,29.040967 -35.747867,45.155553 z" />
    <path d="m 336.666667,178.488897 c -10.617733,-16.114587 -21.7883,-31.776653 -35.747847,-45.155553 c 13.959547,-13.3789 25.130113,-29.040973 35.747847,-45.15556 c 10.617753,16.114587 21.78832,31.77666 35.747867,45.15556 c -13.959547,13.3789 -25.130113,29.040967 -35.747867,45.155553 z" />
    <path d="m 143.333333,302.933341 c -10.617733,-16.114587 -21.7883,-31.776653 -35.747847,-45.155553 c 13.959547,-13.3789 25.130113,-29.040973 35.747847,-45.15556 c 10.617753,16.114587 21.78832,31.77666 35.747867,45.15556 c -13.959547,13.3789 -25.130113,29.040967 -35.747867,45.155553 z" />
    <path d="m 336.666667,302.933341 c -10.617733,-16.114587 -21.7883,-31.776653 -35.747847,-45.155553 c 13.959547,-13.3789 25.130113,-29.040973 35.747847,-45.15556 c 10.617753,16.114587 21.78832,31.77666 35.747867,45.15556 c -13.959547,13.3789 -25.130113,29.040967 -35.747867,45.155553 z" />
    <path d="m 240,365.155563 c -10.617733,-16.114587 -21.7883,-31.776653 -35.747847,-45.155553 c 13.959547,-13.3789 25.130113,-29.040973 35.747847,-45.15556 c 10.617753,16.114587 21.78832,31.77666 35.747867,45.15556 c -13.959547,13.3789 -25.130113,29.040967 -35.747867,45.155553 z" />
    <path d="m 143.333333,337.066659 c -10.617733,16.114587 -21.7883,31.776653 -35.747847,45.155553 c 13.959547,13.3789 25.130113,29.040973 35.747847,45.15556 c 10.617753,-16.114587 21.78832,-31.77666 35.747867,-45.15556 c -13.959547,-13.3789 -25.130113,-29.040967 -35.747867,-45.155553 z" />
    <path d="m 336.666667,337.066659 c -10.617733,16.114587 -21.7883,31.776653 -35.747847,45.155553 c 13.959547,13.3789 25.130113,29.040973 35.747847,45.15556 c 10.617753,-16.114587 21.78832,-31.77666 35.747867,-45.15556 c -13.959547,-13.3789 -25.130113,-29.040967 -35.747867,-45.155553 z" />
    <path d="m 143.333333,461.511103 c -10.617733,16.114587 -21.7883,31.776653 -35.747847,45.155553 c 13.959547,13.3789 25.130113,29.040973 35.747847,45.15556 c 10.617753,-16.114587 21.78832,-31.77666 35.747867,-45.15556 c -13.959547,-13.3789 -25.130113,-29.040967 -35.747867,-45.155553 z" />
    <path d="m 336.666667,461.511103 c -10.617733,16.114587 -21.7883,31.776653 -35.747847,45.155553 c 13.959547,13.3789 25.130113,29.040973 35.747847,45.15556 c 10.617753,-16.114587 21.78832,-31.77666 35.747867,-45.15556 c -13.959547,-13.3789 -25.130113,-29.040967 -35.747867,-45.155553 z" />
  </g>
</svg>
