<?xml version="1.0" encoding="utf-8" standalone="yes"?>
<svg xmlns="http://www.w3.org/2000/svg" width="480px" height="640px" version="1.1">
  <rect width="71" height="95" rx="5" ry="5" x="0.5" y="0.5" style="fill:#ffffff;stroke:#000000;stroke-width:1" transform="matrix(6.66666666667,0,0,6.66666666667,0,0)" />
  <g style="fill:#c8102e">
    <path d="m 45.9891,99.07554 l 5.679833,-1.800733 c 2.145647,5.725333 6.47326,7.4204 11.05468,7.053333 c 8.220027,-0.655333 10.95082,-9.844733 11.5655,-17.967267 c -3.202853,3.3974 -8.014193,5.121733 -12.11452,4.947 c -13.106253,-0.7022 -16.46132,-11.192267 -16.5823,-22.1726 c -0.358047,-9.2584 3.4689,-15.9644 10.03416,-19.043867 c 3.478493,-1.559533 11.4417,-1.559533 14.93976,0.288267 c 8.031133,4.237267 11.00896,11.556867 10.469353,29.0338 c 0,14.377533 -3.0529,31.123 -18.464353,31.4876 c -8.89944,1.2318 -15.665453,-5.696 -16.5823,-11.825533 z m 22.310673,-15.7548 c 2.673033,-1.6926 4.17766,-3.281467 5.37748,-5.658933 c 0.98214,-1.953733 1.323253,-2.973733 1.040087,-7.014 c -0.728327,-10.423667 -6.190093,-16.341133 -14.117367,-15.168533 c -4.42206,0.665267 -6.8409,3.138667 -8.229433,7.738333 c -2.561833,8.506933 0.689373,18.4574 6.7758,20.748667 c 2.738127,1.039533 6.971473,0.741533 9.153247,-0.645533 z" />
    <path d="m 434.0109,540.92446 l -5.679833,1.800733 c -2.145647,-5.725333 -6.47326,-7.4204 -11.05468,-7.053333 c -8.220027,0.655333 -10.95082,9.844733 -11.5655,17.967267 c 3.202853,-3.3974 8.014193,-5.121733 12.11452,-4.947 c 13.106253,0.7022 16.46132,11.192267 16.5823,22.1726 c 0.358047,9.2584 -3.4689,15.9644 -10.03416,19.043867 c -3.478493,1.559533 -11.4417,1.559533 -14.93976,-0.288267 c -8.031133,-4.237267 -11.00896,-11.556867 -10.469353,-29.0338 c 0,-14.377533 3.0529,-31.123 18.464353,-31.4876 c 8.89944,-1.2318 15.665453,5.696 16.5823,11.825533 z m -22.310673,15.7548 c -2.673033,1.6926 -4.17766,3.281467 -5.37748,5.658933 c -0.98214,1.953733 -1.323253,2.973733 -1.040087,7.014 c 0.728327,10.423667 6.190093,16.341133 14.117367,15.168533 c 4.42206,-0.665267 6.8409,-3.138667 8.229433,-7.738333 c 2.561833,-8.506933 -0.689373,-18.4574 -6.7758,-20.748667 c -2.738127,-1.039533 -6.971473,-0.741533 -9.153247,0.645533 z" />
    <path d="m 63.333333,159.395559 l -9.785363,-12.535379 c -3.759373,-4.533061 -6.764909,-9.441517 -7.044344,-13.669405 c -0.320496,-4.829621 2.713248,-9.674869 8.205635,-9.909699 c 5.489083,-0.234696 7.717123,3.723851 8.624072,6.987528 c 0.907032,-3.263685 3.135072,-7.222224 8.624155,-6.987528 c 5.492389,0.234829 8.526139,5.080077 8.205635,9.909699 c -0.279427,4.227885 -3.284963,9.136344 -7.044344,13.669405 z" />
    <path d="m 416.666667,480.604441 l 9.785363,12.535379 c 3.759373,4.533061 6.764909,9.441517 7.044344,13.669405 c 0.320496,4.829621 -2.713248,9.674869 -8.205635,9.909699 c -5.489083,0.234696 -7.717123,-3.723851 -8.624072,-6.987528 c -0.907032,3.263685 -3.135072,7.222224 -8.624155,6.987528 c -5.492389,-0.234829 -8.526139,-5.080077 -8.205635,-9.909699 c 0.279427,-4.227885 3.284963,-9.136344 7.044344,-13.669405 z" />
    <path d="m 143.333333,178.488897 l -24.463407,-31.338447 c -9.398433,-11.332653 -16.912273,-23.603793 -17.61086,-34.173513 c -0.80124,-12.074053 6.78312,-24.187173 20.514087,-24.774247 c 13.722707,-0.58674 19.292807,9.309627 21.56018,17.46882 c 2.26758,-8.159213 7.83768,-18.05556 21.560387,-17.46882 c 13.730973,0.587073 21.315347,12.700193 20.514087,24.774247 c -0.698567,10.569713 -8.212407,22.84086 -17.61086,34.173513 z" />
    <path d="m 336.666667,178.488897 l -24.463407,-31.338447 c -9.398433,-11.332653 -16.912273,-23.603793 -17.61086,-34.173513 c -0.80124,-12.074053 6.78312,-24.187173 20.514087,-24.774247 c 13.722707,-0.58674 19.292807,9.309627 21.56018,17.46882 c 2.26758,-8.159213 7.83768,-18.05556 21.560387,-17.46882 c 13.730973,0.587073 21.315347,12.700193 20.514087,24.774247 c -0.698567,10.569713 -8.212407,22.84086 -17.61086,34.173513 z" />
    <path d="m 143.333333,302.933341 l -24.463407,-31.338447 c -9.398433,-11.332653 -16.912273,-23.603793 -17.61086,-34.173513 c -0.80124,-12.074053 6.78312,-24.187173 20.514087,-24.774247 c 13.722707,-0.58674 19.292807,9.309627 21.56018,17.46882 c 2.26758,-8.159213 7.83768,-18.05556 21.560387,-17.46882 c 13.730973,0.587073 21.315347,12.700193 20.514087,24.774247 c -0.698567,10.569713 -8.212407,22.84086 -17.61086,34.173513 z" />
    <path d="m 336.666667,302.933341 l -24.463407,-31.338447 c -9.398433,-11.332653 -16.912273,-23.603793 -17.61086,-34.173513 c -0.80124,-12.074053 6.78312,-24.187173 20.514087,-24.774247 c 13.722707,-0.58674 19.292807,9.309627 21.56018,17.46882 c 2.26758,-8.159213 7.83768,-18.05556 21.560387,-17.46882 c 13.730973,0.587073 21.315347,12.700193 20.514087,24.774247 c -0.698567,10.569713 -8.212407,22.84086 -17.61086,34.173513 z" />
    <path d="m 240,365.155563 l -24.463407,-31.338447 c -9.398433,-11.332653 -16.912273,-23.603793 -17.61086,-34.173513 c -0.80124,-12.074053 6.78312,-24.187173 20.514087,-24.774247 c 13.722707,-0.58674 19.292807,9.309627 21.56018,17.46882 c 2.26758,-8.159213 7.83768,-18.05556 21.560387,-17.46882 c 13.730973,0.587073 21.315347,12.700193 20.514087,24.774247 c -0.698567,10.569713 -8.212407,22.84086 -17.61086,34.173513 z" />
    <path d="m 143.333333,337.066659 l -24.463407,31.338447 c -9.398433,11.332653 -16.912273,23.603793 -17.61086,34.173513 c -0.80124,12.074053 6.78312,24.187173 20.514087,24.774247 c 13.722707,0.58674 19.292807,-9.309627 21.56018,-17.46882 c 2.26758,8.159213 7.83768,18.05556 21.560387,17.46882 c 13.730973,-0.587073 21.315347,-12.700193 20.514087,-24.774247 c -0.698567,-10.569713 -8.212407,-22.84086 -17.61086,-34.173513 z" />
    <path d="m 336.666667,337.066659 l -24.463407,31.338447 c -9.398433,11.332653 -16.912273,23.603793 -17.61086,34.173513 c -0.80124,12.074053 6.78312,24.187173 20.514087,24.774247 c 13.722707,0.58674 19.292807,-9.309627 21.56018,-17.46882 c 2.26758,8.159213 7.83768,18.05556 21.560387,17.46882 c 13.730973,-0.587073 21.315347,-12.700193 20.514087,-24.774247 c -0.698567,-10.569713 -8.212407,-22.84086 -17.61086,-34.173513 z" />
    <path d="m 143.333333,461.511103 l -24.463407,31.338447 c -9.398433,11.332653 -16.912273,23.603793 -17.61086,34.173513 c -0.80124,12.074053 6.78312,24.187173 20.514087,24.774247 c 13.722707,0.58674 19.292807,-9.309627 21.56018,-17.46882 c 2.26758,8.159213 7.83768,18.05556 21.560387,17.46882 c 13.730973,-0.587073 21.315347,-12.700193 20.514087,-24.774247 c -0.698567,-10.569713 -8.212407,-22.84086 -17.61086,-34.173513 z" />
    <path d="m 336.666667,461.511103 l -24.463407,31.338447 c -9.398433,11.332653 -16.912273,23.603793 -17.61086,34.173513 c -0.80124,12.074053 6.78312,24.187173 20.514087,24.774247 c 13.722707,0.58674 19.292807,-9.309627 21.56018,-17.46882 c 2.26758,8.159213 7.83768,18.05556 21.560387,17.46882 c 13.730973,-0.587073 21.315347,-12.700193 20.514087,-24.774247 c -0.698567,-10.569713 -8.212407,-22.84086 -17.61086,-34.173513 z" />
  </g>
</svg>