<?xml version="1.0" encoding="utf-8" standalone="yes"?>
<svg xmlns="http://www.w3.org/2000/svg" width="480px" height="640px" version="1.1">
  <rect width="71" height="95" rx="5" ry="5" x="0.5" y="0.5" style="fill:#ffffff;stroke:#000000;stroke-width:1" transform="matrix(6.66666666667,0,0,6.66666666667,0,0)" />
  <g style="fill:#c8102e">
    <path d="m 44.345233,111.04454 l 0,-5.308933 l 5.065527,0 l 10.791087,-56.780133 l 6.14192,0 l 11.887053,56.780133 l 4.09054,0 l 0,5.308933 l -13.938433,0 l 0,-5.308933 l 3.76166,0 l -1.50218,-8.701333 l -14.061673,0 l -1.086187,8.701333 l 3.761473,0 l 0,5.308933 z m 25.097347,-20.208667 l -6.112953,-30.390533 l -5.72574,30.390533 z" />
    <path d="m 435.654767,528.95546 l 0,5.308933 l -5.065527,0 l -10.791087,56.780133 l -6.14192,0 l -11.887053,-56.780133 l -4.09054,0 l 0,-5.308933 l 13.938433,0 l 0,5.308933 l -3.76166,0 l 1.50218,8.701333 l 14.061673,0 l 1.086187,-8.701333 l -3.761473,0 l 0,-5.308933 z m -25.097347,20.208667 l 6.112953,30.390533 l 5.72574,-30.390533 z" />
    <path d="m 63.333333,159.395559 c -4.247093,-6.445835 -8.71532,-12.710661 -14.299139,-18.062221 c 5.583819,-5.35156 10.052045,-11.616389 14.299139,-18.062224 c 4.247101,6.445835 8.715328,12.710664 14.299147,18.062224 c -5.583819,5.35156 -10.052045,11.616387 -14.299147,18.062221 z" />
    <path d="m 416.666667,480.604441 c 4.247093,6.445835 8.71532,12.710661 14.299139,18.062221 c -5.583819,5.35156 -10.052045,11.616389 -14.299139,18.062224 c -4.247101,-6.445835 -8.715328,-12.710664 -14.299147,-18.062224 c 5.583819,-5.35156 10.052045,-11.616387 14.299147,-18.062221 z" />
    <path d="m 240,365.155563 c -10.617733,-16.114587 -21.7883,-31.776653 -35.747847,-45.155553 c 13.959547,-13.3789 25.130113,-29.040973 35.747847,-45.15556 c 10.617753,16.114587 21.78832,31.77666 35.747867,45.15556 c -13.959547,13.3789 -25.130113,29.040967 -35.747867,45.155553 z" />
  </g>
</svg>