<?xml version="1.0" encoding="utf-8" standalone="yes"?>
<svg xmlns="http://www.w3.org/2000/svg" width="480px" height="640px" version="1.1">
  <rect width="71" height="95" rx="5" ry="5" x="0.5" y="0.5" style="fill:#ffffff;stroke:#000000;stroke-width:1" transform="matrix(6.66666666667,0,0,6.66666666667,0,0)" />
  <g style="fill:#c8102e">
    <path d="m 44.345233,111.04454 l 0,-5.308933 l 5.065527,0 l 10.791087,-56.780133 l 6.14192,0 l 11.887053,56.780133 l 4.09054,0 l 0,5.308933 l -13.938433,0 l 0,-5.308933 l 3.76166,0 l -1.50218,-8.701333 l -14.061673,0 l -1.086187,8.701333 l 3.761473,0 l 0,5.308933 z m 25.097347,-20.208667 l -6.112953,-30.390533 l -5.72574,30.390533 z" />
    <path d="m 435.654767,528.95546 l 0,5.308933 l -5.065527,0 l -10.791087,56.780133 l -6.14192,0 l -11.887053,-56.780133 l -4.09054,0 l 0,-5.308933 l 13.938433,0 l 0,5.308933 l -3.76166,0 l 1.50218,8.701333 l 14.061673,0 l 1.086187,-8.701333 l -3.761473,0 l 0,-5.308933 z m -25.097347,20.208667 l 6.112953,30.390533 l 5.72574,-30.390533 z" />
    <path d="m 63.333333,159.395559 l -9.785363,-12.535379 c -3.759373,-4.533061 -6.764909,-9.441517 -7.044344,-13.669405 c -0.320496,-4.829621 2.713248,-9.674869 8.205635,-9.909699 c 5.489083,-0.234696 7.717123,3.723851 8.624072,6.987528 c 0.907032,-3.263685 3.135072,-7.222224 8.624155,-6.987528 c 5.492389,0.234829 8.526139,5.080077 8.205635,9.909699 c -0.279427,4.227885 -3.284963,9.136344 -7.044344,13.669405 z" />
    <path d="m 416.666667,480.604441 l 9.785363,12.535379 c 3.759373,4.533061 6.764909,9.441517 7.044344,13.669405 c 0.320496,4.829621 -2.713248,9.674869 -8.205635,9.909699 c -5.489083,0.234696 -7.717123,-3.723851 -8.624072,-6.987528 c -0.907032,3.263685 -3.135072,7.222224 -8.624155,6.987528 c -5.492389,-0.234829 -8.526139,-5.080077 -8.205635,-9.909699 c 0.279427,-4.227885 3.284963,-9.136344 7.044344,-13.669405 z" />
    <path d="m 240,365.155563 l -24.463407,-31.338447 c -9.398433,-11.332653 -16.912273,-23.603793 -17.61086,-34.173513 c -0.80124,-12.074053 6.78312,-24.187173 20.514087,-24.774247 c 13.722707,-0.58674 19.292807,9.309627 21.56018,17.46882 c 2.26758,-8.159213 7.83768,-18.05556 21.560387,-17.46882 c 13.730973,0.587073 21.315347,12.700193 20.514087,24.774247 c -0.698567,10.569713 -8.212407,22.84086 -17.61086,34.173513 z" />
  </g>
</svg>