<?xml version="1.0" encoding="utf-8" standalone="yes"?>
<svg xmlns="http://www.w3.org/2000/svg" width="480px" height="640px" version="1.1">
  <rect width="71" height="95" rx="5" ry="5" x="0.5" y="0.5" style="fill:#ffffff;stroke:#000000;stroke-width:1" transform="matrix(6.66666666667,0,0,6.66666666667,0,0)" />
  <g style="fill:#000000">
    <path d="m 44.345233,111.04454 l 0,-5.308933 l 5.065527,0 l 10.791087,-56.780133 l 6.14192,0 l 11.887053,56.780133 l 4.09054,0 l 0,5.308933 l -13.938433,0 l 0,-5.308933 l 3.76166,0 l -1.50218,-8.701333 l -14.061673,0 l -1.086187,8.701333 l 3.761473,0 l 0,5.308933 z m 25.097347,-20.208667 l -6.112953,-30.390533 l -5.72574,30.390533 z" />
    <path d="m 435.654767,528.95546 l 0,5.308933 l -5.065527,0 l -10.791087,56.780133 l -6.14192,0 l -11.887053,-56.780133 l -4.09054,0 l 0,-5.308933 l 13.938433,0 l 0,5.308933 l -3.76166,0 l 1.50218,8.701333 l 14.061673,0 l 1.086187,-8.701333 l -3.761473,0 l 0,-5.308933 z m -25.097347,20.208667 l 6.112953,30.390533 l 5.72574,-30.390533 z" />
    <path d="m 63.333333,123.219197 l -9.785363,10.905779 c -3.759373,3.943765 -6.764909,8.21412 -7.136688,11.324555 c -0.446885,9.269187 12.520965,11.939891 14.955824,2.083568 c 0.128544,-1.039917 0.97476,-1.016184 0.770736,0.459923 c -0.222016,4.006384 -1.474781,7.750952 -3.196717,11.402525 c 2.902224,0 6.145672,0 8.784491,0 c -1.721859,-3.651573 -2.974699,-7.396141 -3.196717,-11.402525 c -0.204027,-1.476107 0.642189,-1.499843 0.770736,-0.459923 c 2.434859,9.856323 15.402707,7.185619 14.955816,-2.083568 c -0.371755,-3.110432 -3.377291,-7.380789 -7.136672,-11.324555 z" />
    <path d="m 416.666667,516.780803 l 9.785363,-10.905779 c 3.759373,-3.943765 6.764909,-8.21412 7.136688,-11.324555 c 0.446885,-9.269187 -12.520965,-11.939891 -14.955824,-2.083568 c -0.128544,1.039917 -0.97476,1.016184 -0.770736,-0.459923 c 0.222016,-4.006384 1.474781,-7.750952 3.196717,-11.402525 c -2.902224,0 -6.145672,0 -8.784491,0 c 1.721859,3.651573 2.974699,7.396141 3.196717,11.402525 c 0.204027,1.476107 -0.642189,1.499843 -0.770736,0.459923 c -2.434859,-9.856323 -15.402707,-7.185619 -14.955816,2.083568 c 0.371755,3.110432 3.377291,7.380789 7.136672,11.324555 z" />
    <path d="m 240,184.14398 l -73.39022,81.79334 c -28.1953,29.57824 -50.73682,61.6059 -53.52516,84.93416 c -3.35164,69.5189 93.90724,89.54918 112.16868,15.62676 c 0.96408,-7.79938 7.3107,-7.62138 5.78052,3.44942 c -1.66512,30.04788 -11.06086,58.13214 -23.97538,85.51894 c 21.76668,0 46.09254,0 65.88368,0 c -12.91394,-27.3868 -22.31024,-55.47106 -23.97538,-85.51894 c -1.5302,-11.0708 4.81642,-11.24882 5.78052,-3.44942 c 18.26144,73.92242 115.5203,53.89214 112.16862,-15.62676 c -2.78816,-23.32824 -25.32968,-55.35592 -53.52504,-84.93416 z" />
  </g>
</svg>