<?xml version="1.0" encoding="utf-8" standalone="yes"?>
<svg xmlns="http://www.w3.org/2000/svg" width="480px" height="640px" version="1.1">
  <rect width="71" height="95" rx="5" ry="5" x="0.5" y="0.5" style="fill:#ffffff;stroke:#000000;stroke-width:1" transform="matrix(6.66666666667,0,0,6.66666666667,0,0)" />
  <g style="fill:#000000">
    <path d="m 240,184.14398 l -73.39022,81.79334 c -28.1953,29.57824 -50.73682,61.6059 -53.52516,84.93416 c -3.35164,69.5189 93.90724,89.54918 112.16868,15.62676 c 0.96408,-7.79938 7.3107,-7.62138 5.78052,3.44942 c -1.66512,30.04788 -11.06086,58.13214 -23.97538,85.51894 c 21.76668,0 46.09254,0 65.88368,0 c -12.91394,-27.3868 -22.31024,-55.47106 -23.97538,-85.51894 c -1.5302,-11.0708 4.81642,-11.24882 5.78052,-3.44942 c 18.26144,73.92242 115.5203,53.89214 112.16862,-15.62676 c -2.78816,-23.32824 -25.32968,-55.35592 -53.52504,-84.93416 z" />
  </g>
</svg>
