<?xml version="1.0" encoding="utf-8" standalone="yes"?>
<svg xmlns="http://www.w3.org/2000/svg" width="480px" height="640px" version="1.1">
  <rect width="71" height="95" rx="5" ry="5" x="0.5" y="0.5" style="fill:#ffffff;stroke:#000000;stroke-width:1" transform="matrix(6.66666666667,0,0,6.66666666667,0,0)" />
  <g style="fill:#c8102e">
    <path d="m 44.482967,111.04454 l 0,-62.087867 l 6.0185,0 l 0,62.087867 z m 23.858573,-62.089067 c -5.79366,0 -10.45016,5.291867 -10.45016,11.864733 l 0,38.360867 c 0,6.572867 4.65894,11.862267 10.45016,11.862267 l 3.381787,0 c 5.793473,0 10.459753,-5.2894 10.459753,-11.862267 l 0,-38.360867 c 0,-6.572867 -4.668727,-11.864733 -10.459753,-11.864733 z m 1.74884,5.8708 c 3.420547,0 6.170907,2.623733 6.170907,5.905267 l 0,38.868333 c 0,3.281533 -2.75036,5.929867 -6.170907,5.929867 c -3.420353,0 -6.180493,-2.648333 -6.180493,-5.929867 l 0,-38.868333 c 0,-3.279067 2.76014,-5.905267 6.180493,-5.905267 z" />
    <path d="m 435.517033,528.95546 l 0,62.087867 l -6.0185,0 l 0,-62.087867 z m -23.858573,62.089067 c 5.79366,0 10.45016,-5.291867 10.45016,-11.864733 l 0,-38.360867 c 0,-6.572867 -4.65894,-11.862267 -10.45016,-11.862267 l -3.381787,0 c -5.793473,0 -10.459753,5.2894 -10.459753,11.862267 l 0,38.360867 c 0,6.572867 4.668727,11.864733 10.459753,11.864733 z m -1.74884,-5.8708 c -3.420547,0 -6.170907,-2.623733 -6.170907,-5.905267 l 0,-38.868333 c 0,-3.281533 2.75036,-5.929867 6.170907,-5.929867 c 3.420353,0 6.180493,2.648333 6.180493,5.929867 l 0,38.868333 c 0,3.279067 -2.76014,5.905267 -6.180493,5.905267 z" />
    <path d="m 63.333333,159.395559 l -9.785363,-12.535379 c -3.759373,-4.533061 -6.764909,-9.441517 -7.044344,-13.669405 c -0.320496,-4.829621 2.713248,-9.674869 8.205635,-9.909699 c 5.489083,-0.234696 7.717123,3.723851 8.624072,6.987528 c 0.907032,-3.263685 3.135072,-7.222224 8.624155,-6.987528 c 5.492389,0.234829 8.526139,5.080077 8.205635,9.909699 c -0.279427,4.227885 -3.284963,9.136344 -7.044344,13.669405 z" />
    <path d="m 416.666667,480.604441 l 9.785363,12.535379 c 3.759373,4.533061 6.764909,9.441517 7.044344,13.669405 c 0.320496,4.829621 -2.713248,9.674869 -8.205635,9.909699 c -5.489083,0.234696 -7.717123,-3.723851 -8.624072,-6.987528 c -0.907032,3.263685 -3.135072,7.222224 -8.624155,6.987528 c -5.492389,-0.234829 -8.526139,-5.080077 -8.205635,-9.909699 c 0.279427,-4.227885 3.284963,-9.136344 7.044344,-13.669405 z" />
    <path d="m 143.333333,178.488897 l -24.463407,-31.338447 c -9.398433,-11.332653 -16.912273,-23.603793 -17.61086,-34.173513 c -0.80124,-12.074053 6.78312,-24.187173 20.514087,-24.774247 c 13.722707,-0.58674 19.292807,9.309627 21.56018,17.46882 c 2.26758,-8.159213 7.83768,-18.05556 21.560387,-17.46882 c 13.730973,0.587073 21.315347,12.700193 20.514087,24.774247 c -0.698567,10.569713 -8.212407,22.84086 -17.61086,34.173513 z" />
    <path d="m 336.666667,178.488897 l -24.463407,-31.338447 c -9.398433,-11.332653 -16.912273,-23.603793 -17.61086,-34.173513 c -0.80124,-12.074053 6.78312,-24.187173 20.514087,-24.774247 c 13.722707,-0.58674 19.292807,9.309627 21.56018,17.46882 c 2.26758,-8.159213 7.83768,-18.05556 21.560387,-17.46882 c 13.730973,0.587073 21.315347,12.700193 20.514087,24.774247 c -0.698567,10.569713 -8.212407,22.84086 -17.61086,34.173513 z" />
    <path d="m 143.333333,302.933341 l -24.463407,-31.338447 c -9.398433,-11.332653 -16.912273,-23.603793 -17.61086,-34.173513 c -0.80124,-12.074053 6.78312,-24.187173 20.514087,-24.774247 c 13.722707,-0.58674 19.292807,9.309627 21.56018,17.46882 c 2.26758,-8.159213 7.83768,-18.05556 21.560387,-17.46882 c 13.730973,0.587073 21.315347,12.700193 20.514087,24.774247 c -0.698567,10.569713 -8.212407,22.84086 -17.61086,34.173513 z" />
    <path d="m 336.666667,302.933341 l -24.463407,-31.338447 c -9.398433,-11.332653 -16.912273,-23.603793 -17.61086,-34.173513 c -0.80124,-12.074053 6.78312,-24.187173 20.514087,-24.774247 c 13.722707,-0.58674 19.292807,9.309627 21.56018,17.46882 c 2.26758,-8.159213 7.83768,-18.05556 21.560387,-17.46882 c 13.730973,0.587073 21.315347,12.700193 20.514087,24.774247 c -0.698567,10.569713 -8.212407,22.84086 -17.61086,34.173513 z" />
    <path d="m 240,251.82223 l -24.463407,-31.338447 c -9.398433,-11.332653 -16.912273,-23.603793 -17.61086,-34.173513 c -0.80124,-12.074053 6.78312,-24.187173 20.514087,-24.774247 c 13.722707,-0.58674 19.292807,9.309627 21.56018,17.46882 c 2.26758,-8.159213 7.83768,-18.05556 21.560387,-17.46882 c 13.730973,0.587073 21.315347,12.700193 20.514087,24.774247 c -0.698567,10.569713 -8.212407,22.84086 -17.61086,34.173513 z" />
    <path d="m 240,388.17777 l -24.463407,31.338447 c -9.398433,11.332653 -16.912273,23.603793 -17.61086,34.173513 c -0.80124,12.074053 6.78312,24.187173 20.514087,24.774247 c 13.722707,0.58674 19.292807,-9.309627 21.56018,-17.46882 c 2.26758,8.159213 7.83768,18.05556 21.560387,17.46882 c 13.730973,-0.587073 21.315347,-12.700193 20.514087,-24.774247 c -0.698567,-10.569713 -8.212407,-22.84086 -17.61086,-34.173513 z" />
    <path d="m 143.333333,337.066659 l -24.463407,31.338447 c -9.398433,11.332653 -16.912273,23.603793 -17.61086,34.173513 c -0.80124,12.074053 6.78312,24.187173 20.514087,24.774247 c 13.722707,0.58674 19.292807,-9.309627 21.56018,-17.46882 c 2.26758,8.159213 7.83768,18.05556 21.560387,17.46882 c 13.730973,-0.587073 21.315347,-12.700193 20.514087,-24.774247 c -0.698567,-10.569713 -8.212407,-22.84086 -17.61086,-34.173513 z" />
    <path d="m 336.666667,337.066659 l -24.463407,31.338447 c -9.398433,11.332653 -16.912273,23.603793 -17.61086,34.173513 c -0.80124,12.074053 6.78312,24.187173 20.514087,24.774247 c 13.722707,0.58674 19.292807,-9.309627 21.56018,-17.46882 c 2.26758,8.159213 7.83768,18.05556 21.560387,17.46882 c 13.730973,-0.587073 21.315347,-12.700193 20.514087,-24.774247 c -0.698567,-10.569713 -8.212407,-22.84086 -17.61086,-34.173513 z" />
    <path d="m 143.333333,461.511103 l -24.463407,31.338447 c -9.398433,11.332653 -16.912273,23.603793 -17.61086,34.173513 c -0.80124,12.074053 6.78312,24.187173 20.514087,24.774247 c 13.722707,0.58674 19.292807,-9.309627 21.56018,-17.46882 c 2.26758,8.159213 7.83768,18.05556 21.560387,17.46882 c 13.730973,-0.587073 21.315347,-12.700193 20.514087,-24.774247 c -0.698567,-10.569713 -8.212407,-22.84086 -17.61086,-34.173513 z" />
    <path d="m 336.666667,461.511103 l -24.463407,31.338447 c -9.398433,11.332653 -16.912273,23.603793 -17.61086,34.173513 c -0.80124,12.074053 6.78312,24.187173 20.514087,24.774247 c 13.722707,0.58674 19.292807,-9.309627 21.56018,-17.46882 c 2.26758,8.159213 7.83768,18.05556 21.560387,17.46882 c 13.730973,-0.587073 21.315347,-12.700193 20.514087,-24.774247 c -0.698567,-10.569713 -8.212407,-22.84086 -17.61086,-34.173513 z" />
  </g>
</svg>